<svg width="43" height="44" viewBox="0 0 43 44" fill="none" xmlns="http://www.w3.org/2000/svg">
<rect x="0.459961" y="0.446465" width="42.1416" height="43.4414" rx="3" fill="#DDF9E4"/>
<path d="M23.1504 14.0256H13.5801C12.4755 14.0256 11.5801 14.921 11.5801 16.0256V23.7865C11.5801 24.8911 12.4755 25.7865 13.5801 25.7865H23.1504C24.255 25.7865 25.1504 24.8911 25.1504 23.7865V16.0256C25.1504 14.921 24.255 14.0256 23.1504 14.0256Z" stroke="#22A447" stroke-width="2" stroke-linecap="round" stroke-linejoin="round"/>
<path d="M25.1494 20.55C25.1494 19.4454 26.0448 18.55 27.1494 18.55H27.9397C28.4702 18.55 28.9789 18.7607 29.354 19.1358L30.8964 20.6783C31.2715 21.0533 31.4822 21.562 31.4822 22.0925V23.7875C31.4822 24.8921 30.5868 25.7875 29.4822 25.7875H27.1494C26.0448 25.7875 25.1494 24.8921 25.1494 23.7875V20.55Z" stroke="#22A447" stroke-width="2" stroke-linecap="round" stroke-linejoin="round"/>
<path d="M15.6514 30.3088C16.9005 30.3088 17.9131 29.2962 17.9131 28.0471C17.9131 26.7979 16.9005 25.7853 15.6514 25.7853C14.4023 25.7853 13.3896 26.7979 13.3896 28.0471C13.3896 29.2962 14.4023 30.3088 15.6514 30.3088Z" stroke="#22A447" stroke-width="2" stroke-linecap="round" stroke-linejoin="round"/>
<path d="M27.4111 30.3088C28.6603 30.3088 29.6729 29.2962 29.6729 28.0471C29.6729 26.7979 28.6603 25.7853 27.4111 25.7853C26.162 25.7853 25.1494 26.7979 25.1494 28.0471C25.1494 29.2962 26.162 30.3088 27.4111 30.3088Z" stroke="#22A447" stroke-width="2" stroke-linecap="round" stroke-linejoin="round"/>
</svg>
