<svg width="43" height="45" viewBox="0 0 43 45" fill="none" xmlns="http://www.w3.org/2000/svg">
<rect x="0.459961" y="0.703274" width="42.1416" height="43.4414" rx="3" fill="#FFEADA"/>
<path d="M17.6934 30.3925C18.1125 30.3925 18.4523 30.0527 18.4523 29.6336C18.4523 29.2144 18.1125 28.8747 17.6934 28.8747C17.2742 28.8747 16.9344 29.2144 16.9344 29.6336C16.9344 30.0527 17.2742 30.3925 17.6934 30.3925Z" stroke="#F8964C" stroke-width="2" stroke-linecap="round" stroke-linejoin="round"/>
<path d="M26.04 30.3925C26.4591 30.3925 26.7989 30.0527 26.7989 29.6336C26.7989 29.2144 26.4591 28.8747 26.04 28.8747C25.6209 28.8747 25.2811 29.2144 25.2811 29.6336C25.2811 30.0527 25.6209 30.3925 26.04 30.3925Z" stroke="#F8964C" stroke-width="2" stroke-linecap="round" stroke-linejoin="round"/>
<path d="M11.6201 14.4552H14.6557L16.6896 24.617C16.759 24.9664 16.9491 25.2802 17.2266 25.5036C17.5041 25.727 17.8513 25.8457 18.2074 25.8388H25.584C25.9402 25.8457 26.2874 25.727 26.5649 25.5036C26.8423 25.2802 27.0324 24.9664 27.1018 24.617L28.3161 18.2498H15.4147" stroke="#F8964C" stroke-width="2" stroke-linecap="round" stroke-linejoin="round"/>
</svg>
