<svg width="1080" height="1362" viewBox="0 0 1080 1362" fill="none" xmlns="http://www.w3.org/2000/svg">
<g id="Vector">
<path d="M43.6451 9.36457C-39.787 -92.9812 17.6117 -195.236 56.74 -233.571L620.427 -837.668L2259.84 692.074L1696.15 1296.17C1660.61 1337.86 1562.57 1402.19 1454.7 1326.03C1319.87 1230.83 1269.64 1291.13 1208.06 1320.42C1146.47 1349.71 1074.12 1368.95 1006.15 1236.64C938.189 1104.33 849.47 998.578 691.538 1014.51C565.193 1027.26 498.587 979.904 476.811 959.584C455.034 939.265 403.191 876.091 407.173 749.167C412.15 590.512 300.521 509.315 163.829 450.658C27.1374 392.002 41.3271 318.49 66.2882 255.029C91.2492 191.568 147.935 137.297 43.6451 9.36457Z" fill="black"/>
<path d="M43.6451 9.36457C-39.787 -92.9812 17.6117 -195.236 56.74 -233.571L620.427 -837.668L2259.84 692.074L1696.15 1296.17C1660.61 1337.86 1562.57 1402.19 1454.7 1326.03C1319.87 1230.83 1269.64 1291.13 1208.06 1320.42C1146.47 1349.71 1074.12 1368.95 1006.15 1236.64C938.189 1104.33 849.47 998.578 691.538 1014.51C565.193 1027.26 498.587 979.904 476.811 959.584C455.034 939.265 403.191 876.091 407.173 749.167C412.15 590.512 300.521 509.315 163.829 450.658C27.1374 392.002 41.3271 318.49 66.2882 255.029C91.2492 191.568 147.935 137.297 43.6451 9.36457Z" fill="#1766FF"/>
</g>
</svg>
