<svg width="321" height="208" viewBox="0 0 321 208" fill="none" xmlns="http://www.w3.org/2000/svg">
<rect x="0.127075" y="0.967804" width="320.425" height="206.172" rx="26" fill="url(#paint0_linear)"/>
<mask id="mask0" mask-type="alpha" maskUnits="userSpaceOnUse" x="0" y="0" width="321" height="208">
<rect x="0.127075" y="0.967804" width="320.425" height="206.172" rx="26" fill="url(#paint1_linear)"/>
</mask>
<g mask="url(#mask0)">
<path d="M25.2472 162.703C25.2903 162.703 25.3274 162.72 25.3585 162.753L25.6599 163.084C25.4494 163.332 25.1922 163.525 24.8883 163.661C24.5869 163.798 24.2232 163.866 23.7973 163.866C23.4241 163.866 23.0855 163.801 22.7816 163.672C22.4802 163.543 22.2218 163.362 22.0064 163.13C21.7935 162.898 21.6284 162.621 21.5112 162.298C21.3939 161.975 21.3353 161.619 21.3353 161.232C21.3353 160.844 21.3963 160.489 21.5184 160.166C21.6428 159.843 21.8162 159.565 22.0387 159.333C22.2613 159.101 22.5268 158.921 22.8355 158.791C23.1465 158.662 23.4899 158.598 23.8655 158.598C24.2316 158.598 24.5569 158.657 24.8417 158.777C25.1264 158.897 25.374 159.056 25.5846 159.254L25.3333 159.61C25.3166 159.636 25.2951 159.657 25.2687 159.674C25.2448 159.691 25.2125 159.699 25.1718 159.699C25.1264 159.699 25.0725 159.677 25.0103 159.631C24.9505 159.586 24.8704 159.535 24.7699 159.48C24.6718 159.423 24.5498 159.372 24.4038 159.326C24.2579 159.281 24.076 159.258 23.8583 159.258C23.6023 159.258 23.3678 159.303 23.1549 159.394C22.9419 159.483 22.7577 159.612 22.6022 159.782C22.4491 159.949 22.3294 160.156 22.2433 160.403C22.1596 160.647 22.1177 160.923 22.1177 161.232C22.1177 161.545 22.162 161.824 22.2505 162.068C22.339 162.312 22.461 162.519 22.6166 162.689C22.7721 162.859 22.9551 162.988 23.1657 163.076C23.3762 163.165 23.6035 163.209 23.8475 163.209C23.9959 163.209 24.1287 163.201 24.2459 163.184C24.3655 163.165 24.4744 163.138 24.5725 163.102C24.673 163.066 24.7675 163.02 24.856 162.965C24.9445 162.908 25.0319 162.84 25.118 162.761C25.1371 162.744 25.1575 162.731 25.179 162.721C25.2006 162.709 25.2233 162.703 25.2472 162.703ZM28.244 162.19C27.9593 162.2 27.7177 162.222 27.5191 162.258C27.3205 162.292 27.159 162.337 27.0346 162.395C26.9102 162.452 26.8204 162.52 26.7654 162.599C26.7104 162.676 26.6829 162.762 26.6829 162.858C26.6829 162.948 26.6972 163.027 26.7259 163.094C26.757 163.159 26.7977 163.213 26.848 163.256C26.9006 163.297 26.9616 163.327 27.031 163.346C27.1004 163.365 27.1757 163.374 27.2571 163.374C27.3648 163.374 27.4629 163.364 27.5514 163.342C27.6423 163.321 27.7272 163.291 27.8062 163.252C27.8851 163.212 27.9605 163.163 28.0323 163.105C28.1041 163.048 28.1746 162.982 28.244 162.908V162.19ZM26.1912 160.672C26.3946 160.478 26.6147 160.333 26.8515 160.238C27.0908 160.142 27.3528 160.094 27.6375 160.094C27.8457 160.094 28.0299 160.129 28.1902 160.198C28.3505 160.265 28.4857 160.36 28.5957 160.482C28.7058 160.604 28.7883 160.75 28.8434 160.92C28.9008 161.089 28.9295 161.277 28.9295 161.483V163.809H28.6173C28.5479 163.809 28.4953 163.798 28.4594 163.776C28.4235 163.752 28.3948 163.709 28.3732 163.647L28.2979 163.328C28.2046 163.414 28.1124 163.49 28.0215 163.557C27.9306 163.622 27.8349 163.678 27.7344 163.726C27.6363 163.772 27.531 163.806 27.4186 163.83C27.3061 163.854 27.1817 163.866 27.0453 163.866C26.9018 163.866 26.7666 163.847 26.6398 163.809C26.5154 163.768 26.4065 163.707 26.3132 163.626C26.2199 163.544 26.1457 163.443 26.0907 163.321C26.0381 163.199 26.0117 163.056 26.0117 162.893C26.0117 162.75 26.05 162.612 26.1266 162.481C26.2055 162.347 26.3324 162.227 26.507 162.122C26.6841 162.017 26.9138 161.93 27.1961 161.863C27.4808 161.796 27.8301 161.758 28.244 161.749V161.483C28.244 161.208 28.1854 161.002 28.0682 160.866C27.9509 160.729 27.7787 160.661 27.5514 160.661C27.3983 160.661 27.2691 160.68 27.1638 160.719C27.0609 160.757 26.9712 160.8 26.8946 160.848C26.8204 160.893 26.7546 160.935 26.6972 160.973C26.6422 161.012 26.5848 161.031 26.525 161.031C26.4771 161.031 26.4352 161.018 26.3993 160.991C26.3659 160.965 26.3383 160.934 26.3168 160.898L26.1912 160.672ZM30.5267 160.862C30.644 160.623 30.7851 160.435 30.9502 160.299C31.1153 160.162 31.3139 160.094 31.546 160.094C31.6249 160.094 31.6991 160.104 31.7685 160.123C31.8403 160.14 31.9025 160.166 31.9551 160.202L31.9084 160.729C31.8917 160.794 31.8522 160.826 31.79 160.826C31.7565 160.826 31.7063 160.82 31.6393 160.808C31.5723 160.794 31.5005 160.787 31.4239 160.787C31.3115 160.787 31.2122 160.804 31.1261 160.837C31.0399 160.868 30.9622 160.916 30.8928 160.981C30.8258 161.043 30.766 161.121 30.7133 161.214C30.6607 161.305 30.6117 161.409 30.5662 161.526V163.809H29.8664V160.162H30.2683C30.3449 160.162 30.3963 160.177 30.4227 160.205C30.4514 160.232 30.4717 160.28 30.4837 160.349L30.5267 160.862ZM34.7195 161.045C34.6046 160.894 34.4802 160.789 34.3462 160.729C34.2147 160.67 34.0663 160.64 33.9012 160.64C33.5806 160.64 33.3318 160.756 33.1547 160.988C32.9801 161.217 32.8928 161.554 32.8928 161.996C32.8928 162.228 32.9119 162.427 32.9502 162.592C32.9908 162.755 33.0483 162.889 33.1224 162.994C33.199 163.097 33.2923 163.173 33.4024 163.224C33.5124 163.271 33.6368 163.295 33.7756 163.295C33.979 163.295 34.1548 163.25 34.3032 163.159C34.4515 163.068 34.5903 162.94 34.7195 162.775V161.045ZM35.4229 158.511V163.809H34.9994C34.9013 163.809 34.8403 163.762 34.8164 163.669L34.7554 163.249C34.5999 163.433 34.4228 163.581 34.2242 163.694C34.028 163.804 33.8007 163.859 33.5423 163.859C33.3342 163.859 33.1452 163.818 32.9753 163.737C32.8078 163.655 32.6643 163.537 32.5446 163.382C32.425 163.224 32.3329 163.029 32.2683 162.797C32.2037 162.564 32.1714 162.298 32.1714 161.996C32.1714 161.726 32.2073 161.475 32.2791 161.243C32.3508 161.01 32.4549 160.81 32.5913 160.64C32.7277 160.47 32.8928 160.337 33.0866 160.241C33.2804 160.143 33.4993 160.094 33.7433 160.094C33.9634 160.094 34.1501 160.13 34.3032 160.202C34.4587 160.274 34.5975 160.375 34.7195 160.507V158.511H35.4229ZM38.9146 160.625C39.0677 160.47 39.2364 160.344 39.4206 160.248C39.6072 160.153 39.8213 160.105 40.063 160.105C40.264 160.105 40.4398 160.138 40.5906 160.205C40.7437 160.272 40.8717 160.367 40.9746 160.489C41.0775 160.609 41.1552 160.753 41.2078 160.923C41.2605 161.093 41.2868 161.281 41.2868 161.487V163.809H40.5834V161.487C40.5834 161.226 40.5236 161.024 40.4039 160.88C40.2843 160.734 40.1013 160.661 39.8548 160.661C39.6754 160.661 39.5067 160.704 39.3488 160.79C39.1933 160.874 39.0485 160.989 38.9146 161.135V163.809H38.2147V158.511H38.9146V160.625ZM43.7852 160.105C44.0531 160.105 44.2948 160.149 44.5101 160.238C44.7278 160.324 44.9121 160.449 45.0628 160.615C45.2159 160.777 45.3332 160.975 45.4145 161.207C45.4959 161.436 45.5365 161.695 45.5365 161.982C45.5365 162.269 45.4959 162.529 45.4145 162.761C45.3332 162.993 45.2159 163.19 45.0628 163.353C44.9121 163.516 44.7278 163.641 44.5101 163.73C44.2948 163.816 44.0531 163.859 43.7852 163.859C43.5148 163.859 43.2708 163.816 43.053 163.73C42.8377 163.641 42.6535 163.516 42.5004 163.353C42.3472 163.19 42.2288 162.993 42.1451 162.761C42.0637 162.529 42.023 162.269 42.023 161.982C42.023 161.695 42.0637 161.436 42.1451 161.207C42.2288 160.975 42.3472 160.777 42.5004 160.615C42.6535 160.449 42.8377 160.324 43.053 160.238C43.2708 160.149 43.5148 160.105 43.7852 160.105ZM43.7852 163.313C44.1297 163.313 44.3869 163.197 44.5568 162.965C44.7267 162.733 44.8116 162.407 44.8116 161.985C44.8116 161.564 44.7267 161.238 44.5568 161.006C44.3869 160.771 44.1297 160.654 43.7852 160.654C43.4359 160.654 43.1751 160.771 43.0028 161.006C42.8329 161.238 42.748 161.564 42.748 161.985C42.748 162.407 42.8329 162.733 43.0028 162.965C43.1751 163.197 43.4359 163.313 43.7852 163.313ZM47.0355 158.511V163.809H46.3321V158.511H47.0355ZM50.3858 161.045C50.2709 160.894 50.1465 160.789 50.0125 160.729C49.881 160.67 49.7326 160.64 49.5675 160.64C49.2469 160.64 48.9981 160.756 48.821 160.988C48.6464 161.217 48.5591 161.554 48.5591 161.996C48.5591 162.228 48.5782 162.427 48.6165 162.592C48.6571 162.755 48.7146 162.889 48.7887 162.994C48.8653 163.097 48.9586 163.173 49.0687 163.224C49.1787 163.271 49.3031 163.295 49.4419 163.295C49.6453 163.295 49.8211 163.25 49.9695 163.159C50.1178 163.068 50.2566 162.94 50.3858 162.775V161.045ZM51.0892 158.511V163.809H50.6657C50.5676 163.809 50.5066 163.762 50.4827 163.669L50.4217 163.249C50.2662 163.433 50.0891 163.581 49.8905 163.694C49.6943 163.804 49.467 163.859 49.2086 163.859C49.0005 163.859 48.8115 163.818 48.6416 163.737C48.4741 163.655 48.3306 163.537 48.2109 163.382C48.0913 163.224 47.9992 163.029 47.9346 162.797C47.87 162.564 47.8377 162.298 47.8377 161.996C47.8377 161.726 47.8736 161.475 47.9454 161.243C48.0171 161.01 48.1212 160.81 48.2576 160.64C48.394 160.47 48.5591 160.337 48.7529 160.241C48.9466 160.143 49.1656 160.094 49.4096 160.094C49.6297 160.094 49.8164 160.13 49.9695 160.202C50.125 160.274 50.2638 160.375 50.3858 160.507V158.511H51.0892ZM54.4809 161.58C54.4809 161.441 54.4605 161.313 54.4199 161.196C54.3816 161.079 54.3242 160.977 54.2476 160.891C54.171 160.805 54.0777 160.738 53.9677 160.69C53.8576 160.642 53.7308 160.618 53.5872 160.618C53.293 160.618 53.0609 160.703 52.891 160.873C52.7235 161.043 52.617 161.278 52.5716 161.58H54.4809ZM55.0587 163.288C54.9725 163.389 54.8733 163.476 54.7608 163.55C54.6484 163.622 54.5287 163.681 54.4019 163.726C54.2751 163.772 54.1435 163.805 54.0071 163.827C53.8732 163.848 53.7404 163.859 53.6088 163.859C53.3576 163.859 53.1243 163.817 52.9089 163.733C52.696 163.647 52.5106 163.523 52.3527 163.36C52.1971 163.195 52.0751 162.992 51.9866 162.75C51.9005 162.506 51.8574 162.226 51.8574 161.91C51.8574 161.656 51.8969 161.421 51.9758 161.203C52.0548 160.983 52.1672 160.792 52.3132 160.629C52.4615 160.466 52.6422 160.338 52.8551 160.245C53.068 160.152 53.3073 160.105 53.5729 160.105C53.7954 160.105 54 160.142 54.1866 160.216C54.3756 160.288 54.5383 160.393 54.6747 160.532C54.811 160.671 54.9175 160.842 54.9941 161.045C55.073 161.249 55.1125 161.481 55.1125 161.741C55.1125 161.849 55.1005 161.922 55.0766 161.96C55.0527 161.996 55.0084 162.014 54.9438 162.014H52.5536C52.5608 162.232 52.5919 162.422 52.647 162.585C52.702 162.745 52.7773 162.879 52.8731 162.987C52.9711 163.094 53.0872 163.175 53.2212 163.227C53.3552 163.28 53.5047 163.306 53.6698 163.306C53.8253 163.306 53.9593 163.288 54.0717 163.252C54.1866 163.216 54.2847 163.178 54.366 163.138C54.4498 163.094 54.5192 163.055 54.5742 163.019C54.6316 162.983 54.6818 162.965 54.7249 162.965C54.7823 162.965 54.8266 162.987 54.8577 163.03L55.0587 163.288ZM56.5251 160.862C56.6423 160.623 56.7835 160.435 56.9486 160.299C57.1136 160.162 57.3122 160.094 57.5443 160.094C57.6233 160.094 57.6974 160.104 57.7668 160.123C57.8386 160.14 57.9008 160.166 57.9534 160.202L57.9068 160.729C57.89 160.794 57.8506 160.826 57.7884 160.826C57.7549 160.826 57.7046 160.82 57.6376 160.808C57.5706 160.794 57.4989 160.787 57.4223 160.787C57.3098 160.787 57.2105 160.804 57.1244 160.837C57.0383 160.868 56.9605 160.916 56.8911 160.981C56.8241 161.043 56.7643 161.121 56.7117 161.214C56.6591 161.305 56.61 161.409 56.5646 161.526V163.809H55.8647V160.162H56.2667C56.3432 160.162 56.3947 160.177 56.421 160.205C56.4497 160.232 56.47 160.28 56.482 160.349L56.5251 160.862Z" fill="white"/>
<path d="M213.475 180.781C213.475 209.638 190.082 233.03 161.226 233.03C132.369 233.03 108.977 209.638 108.977 180.781C108.977 165.567 115.479 151.872 125.857 142.323C135.162 133.761 147.584 128.532 161.226 128.532C190.082 128.532 213.475 151.925 213.475 180.781Z" fill="white" fill-opacity="0.12"/>
<path d="M213.475 180.781C213.475 209.638 190.082 233.03 161.226 233.03H312.02C283.164 233.03 259.771 209.638 259.771 180.781C259.771 177.095 260.153 173.498 260.879 170.028C258.418 170.383 255.902 170.567 253.343 170.567C227.982 170.567 206.841 152.499 202.092 128.532H168.009H161.226C190.082 128.532 213.475 151.925 213.475 180.781Z" fill="white" fill-opacity="0.12"/>
<path d="M202.092 128.532C201.437 125.229 201.094 121.814 201.094 118.318C201.094 113.728 201.686 109.275 202.798 105.033C198.432 112.866 185.362 128.532 168.009 128.532H202.092Z" fill="white" fill-opacity="0.12"/>
<path fill-rule="evenodd" clip-rule="evenodd" d="M312.02 233.03C340.877 233.03 364.27 209.638 364.27 180.781C364.27 151.925 340.877 128.532 312.02 128.532C309.461 128.532 306.945 128.716 304.485 129.072C300.031 150.36 282.62 166.887 260.879 170.028C260.153 173.498 259.771 177.095 259.771 180.781C259.771 209.638 283.164 233.03 312.02 233.03Z" fill="white" fill-opacity="0.12"/>
<path d="M304.485 129.072C300.031 150.36 282.62 166.887 260.879 170.028C265.333 148.74 282.743 132.212 304.485 129.072Z" fill="white" fill-opacity="0.12"/>
<path d="M305.592 118.318C305.592 89.462 282.2 66.0693 253.343 66.0693C229.077 66.0693 208.675 82.6111 202.798 105.033C201.686 109.275 201.094 113.728 201.094 118.318C201.094 121.814 201.437 125.229 202.092 128.532C206.841 152.499 227.982 170.567 253.343 170.567C255.902 170.567 258.418 170.383 260.879 170.028C265.333 148.74 282.743 132.212 304.485 129.072C305.211 125.601 305.592 122.004 305.592 118.318Z" fill="white" fill-opacity="0.12"/>
</g>
<path d="M26.0031 29.2248C26.9521 29.2248 27.7169 29.3755 28.2975 29.677C28.8781 29.9673 29.1684 30.3581 29.1684 30.8493C29.1684 31.095 29.0958 31.3127 28.9506 31.5025C28.8055 31.6811 28.6157 31.7704 28.3812 31.7704C28.2026 31.7704 28.0574 31.7481 27.9458 31.7034C27.8341 31.6476 27.7225 31.5806 27.6108 31.5025C27.5104 31.4132 27.4099 31.3406 27.3094 31.2848C27.1977 31.2289 27.0303 31.1787 26.807 31.134C26.5948 31.0894 26.4218 31.067 26.2878 31.067C25.4504 31.067 24.7917 31.3294 24.3116 31.8542C23.8427 32.3678 23.6082 33.0432 23.6082 33.8806C23.6082 34.6845 23.8482 35.3544 24.3283 35.8903C24.8084 36.4151 25.4225 36.6775 26.1706 36.6775C26.7176 36.6775 27.1252 36.6105 27.3931 36.4765C27.4601 36.443 27.5494 36.3872 27.6611 36.309C27.7839 36.2197 27.8956 36.1527 27.996 36.108C28.0965 36.0634 28.2193 36.041 28.3645 36.041C28.6436 36.041 28.8613 36.1304 29.0176 36.309C29.1851 36.4876 29.2688 36.7165 29.2688 36.9957C29.2688 37.2636 29.1125 37.5148 28.7999 37.7493C28.4873 37.9838 28.0742 38.1736 27.5606 38.3187C27.047 38.4527 26.4999 38.5197 25.9193 38.5197C25.0596 38.5197 24.3004 38.3187 23.6417 37.9168C22.9941 37.5148 22.4917 36.9622 22.1344 36.2588C21.7771 35.5442 21.5985 34.7515 21.5985 33.8806C21.5985 32.9763 21.7827 32.1724 22.1512 31.469C22.5308 30.7656 23.0555 30.2185 23.7254 29.8277C24.3953 29.4258 25.1545 29.2248 26.0031 29.2248ZM32.8972 37.3306C32.8972 37.6209 32.7967 37.8665 32.5957 38.0675C32.4059 38.2573 32.1659 38.3522 31.8756 38.3522C31.5964 38.3522 31.362 38.2573 31.1722 38.0675C30.9824 37.8665 30.8875 37.6209 30.8875 37.3306V26.9807C30.8875 26.6904 30.9824 26.4503 31.1722 26.2605C31.3731 26.0595 31.6188 25.9591 31.9091 25.9591C32.1882 25.9591 32.4227 26.0595 32.6125 26.2605C32.8023 26.4503 32.8972 26.6904 32.8972 26.9807V37.3306ZM43.6786 33.8806C43.6786 34.7738 43.4777 35.5777 43.0757 36.2923C42.6738 36.9957 42.1211 37.5427 41.4177 37.9335C40.7255 38.3243 39.9607 38.5197 39.1233 38.5197C38.2748 38.5197 37.5044 38.3243 36.8122 37.9335C36.1199 37.5427 35.5728 36.9957 35.1709 36.2923C34.769 35.5777 34.568 34.7738 34.568 33.8806C34.568 32.9874 34.769 32.1891 35.1709 31.4857C35.5728 30.7712 36.1199 30.2185 36.8122 29.8277C37.5044 29.4258 38.2748 29.2248 39.1233 29.2248C39.9607 29.2248 40.7255 29.4258 41.4177 29.8277C42.1211 30.2185 42.6738 30.7712 43.0757 31.4857C43.4777 32.1891 43.6786 32.9874 43.6786 33.8806ZM41.6689 33.8806C41.6689 33.3335 41.5517 32.8479 41.3172 32.4236C41.0939 31.9882 40.7869 31.6532 40.3961 31.4187C40.0165 31.1843 39.5922 31.067 39.1233 31.067C38.6544 31.067 38.2245 31.1843 37.8338 31.4187C37.4541 31.6532 37.1471 31.9882 36.9126 32.4236C36.6893 32.8479 36.5777 33.3335 36.5777 33.8806C36.5777 34.4277 36.6893 34.9134 36.9126 35.3377C37.1471 35.7619 37.4541 36.0913 37.8338 36.3258C38.2245 36.5602 38.6544 36.6775 39.1233 36.6775C39.5922 36.6775 40.0165 36.5602 40.3961 36.3258C40.7869 36.0913 41.0939 35.7619 41.3172 35.3377C41.5517 34.9134 41.6689 34.4277 41.6689 33.8806ZM52.0065 29.3923C52.2967 29.3923 52.5368 29.4928 52.7266 29.6937C52.9164 29.8836 53.0113 30.1236 53.0113 30.4139V34.6678C53.0113 35.8736 52.6764 36.817 52.0065 37.4981C51.3477 38.1791 50.4043 38.5197 49.1761 38.5197C47.948 38.5197 47.0045 38.1791 46.3458 37.4981C45.6871 36.817 45.3577 35.8736 45.3577 34.6678V30.4139C45.3577 30.1236 45.4526 29.8836 45.6424 29.6937C45.8322 29.4928 46.0723 29.3923 46.3625 29.3923C46.6528 29.3923 46.8929 29.4928 47.0827 29.6937C47.2725 29.8836 47.3674 30.1236 47.3674 30.4139V34.6678C47.3674 35.3488 47.5181 35.8568 47.8196 36.1918C48.121 36.5156 48.5732 36.6775 49.1761 36.6775C49.7902 36.6775 50.248 36.5156 50.5494 36.1918C50.8509 35.8568 51.0016 35.3488 51.0016 34.6678V30.4139C51.0016 30.1236 51.0965 29.8836 51.2863 29.6937C51.4761 29.4928 51.7162 29.3923 52.0065 29.3923ZM62.4387 25.9591C62.729 25.9591 62.969 26.054 63.1589 26.2438C63.3487 26.4336 63.4436 26.6792 63.4436 26.9807V37.3306C63.4436 37.6209 63.3487 37.8665 63.1589 38.0675C62.969 38.2573 62.729 38.3522 62.4387 38.3522C62.1484 38.3522 61.9084 38.2573 61.7186 38.0675C61.5399 37.8777 61.445 37.6376 61.4339 37.3474C61.1547 37.6711 60.7751 37.9503 60.295 38.1847C59.8261 38.408 59.3293 38.5197 58.8045 38.5197C58.0341 38.5197 57.3363 38.3243 56.7111 37.9335C56.0858 37.5316 55.589 36.9789 55.2205 36.2755C54.8633 35.5721 54.6846 34.7738 54.6846 33.8806C54.6846 32.9874 54.8633 32.1891 55.2205 31.4857C55.5778 30.7712 56.0635 30.2185 56.6776 29.8277C57.3028 29.4258 57.9895 29.2248 58.7375 29.2248C59.2734 29.2248 59.7759 29.3253 60.2448 29.5263C60.7137 29.7161 61.1101 29.9617 61.4339 30.2632V26.9807C61.4339 26.6904 61.5288 26.4503 61.7186 26.2605C61.9084 26.0595 62.1484 25.9591 62.4387 25.9591ZM59.0557 36.6775C59.7814 36.6775 60.3732 36.4151 60.8309 35.8903C61.2887 35.3544 61.5176 34.6845 61.5176 33.8806C61.5176 33.0767 61.2887 32.4068 60.8309 31.8709C60.3732 31.335 59.7814 31.067 59.0557 31.067C58.3412 31.067 57.755 31.335 57.2972 31.8709C56.8395 32.4068 56.6106 33.0767 56.6106 33.8806C56.6106 34.6845 56.8339 35.3544 57.2805 35.8903C57.7382 36.4151 58.33 36.6775 59.0557 36.6775ZM69.5237 29.2248C70.4727 29.2248 71.2375 29.3755 71.8181 29.677C72.3987 29.9673 72.689 30.3581 72.689 30.8493C72.689 31.095 72.6164 31.3127 72.4712 31.5025C72.3261 31.6811 72.1363 31.7704 71.9018 31.7704C71.7232 31.7704 71.578 31.7481 71.4664 31.7034C71.3547 31.6476 71.2431 31.5806 71.1314 31.5025C71.031 31.4132 70.9305 31.3406 70.83 31.2848C70.7183 31.2289 70.5509 31.1787 70.3276 31.134C70.1154 31.0894 69.9424 31.067 69.8084 31.067C68.971 31.067 68.3123 31.3294 67.8322 31.8542C67.3633 32.3678 67.1288 33.0432 67.1288 33.8806C67.1288 34.6845 67.3688 35.3544 67.8489 35.8903C68.329 36.4151 68.9431 36.6775 69.6912 36.6775C70.2382 36.6775 70.6458 36.6105 70.9137 36.4765C70.9807 36.443 71.07 36.3872 71.1817 36.309C71.3045 36.2197 71.4162 36.1527 71.5166 36.108C71.6171 36.0634 71.7399 36.041 71.8851 36.041C72.1642 36.041 72.3819 36.1304 72.5382 36.309C72.7057 36.4876 72.7894 36.7165 72.7894 36.9957C72.7894 37.2636 72.6331 37.5148 72.3205 37.7493C72.0079 37.9838 71.5948 38.1736 71.0812 38.3187C70.5676 38.4527 70.0205 38.5197 69.4399 38.5197C68.5802 38.5197 67.821 38.3187 67.1623 37.9168C66.5147 37.5148 66.0123 36.9622 65.655 36.2588C65.2977 35.5442 65.1191 34.7515 65.1191 33.8806C65.1191 32.9763 65.3033 32.1724 65.6718 31.469C66.0514 30.7656 66.5761 30.2185 67.246 29.8277C67.9159 29.4258 68.6751 29.2248 69.5237 29.2248ZM81.4923 29.2248C81.7825 29.2248 82.0226 29.3197 82.2124 29.5095C82.4022 29.6993 82.4971 29.945 82.4971 30.2464V37.3306C82.4971 37.6209 82.4022 37.8665 82.2124 38.0675C82.0226 38.2573 81.7825 38.3522 81.4923 38.3522C81.202 38.3522 80.9619 38.2573 80.7721 38.0675C80.5935 37.8777 80.4986 37.6376 80.4874 37.3474C80.2083 37.6711 79.8287 37.9503 79.3486 38.1847C78.8796 38.408 78.3828 38.5197 77.8581 38.5197C77.0877 38.5197 76.3899 38.3243 75.7646 37.9335C75.1394 37.5316 74.6425 36.9789 74.2741 36.2755C73.9168 35.5721 73.7382 34.7738 73.7382 33.8806C73.7382 32.9874 73.9168 32.1891 74.2741 31.4857C74.6314 30.7712 75.117 30.2185 75.7311 29.8277C76.3564 29.4258 77.043 29.2248 77.7911 29.2248C78.327 29.2248 78.8294 29.3253 79.2983 29.5263C79.7673 29.7161 80.1636 29.9617 80.4874 30.2632V30.2464C80.4874 29.9561 80.5823 29.7161 80.7721 29.5263C80.9619 29.3253 81.202 29.2248 81.4923 29.2248ZM78.1093 36.6775C78.835 36.6775 79.4267 36.4151 79.8845 35.8903C80.3423 35.3544 80.5711 34.6845 80.5711 33.8806C80.5711 33.0767 80.3423 32.4068 79.8845 31.8709C79.4267 31.335 78.835 31.067 78.1093 31.067C77.3947 31.067 76.8085 31.335 76.3508 31.8709C75.893 32.4068 75.6641 33.0767 75.6641 33.8806C75.6641 34.6845 75.8874 35.3544 76.334 35.8903C76.7918 36.4151 77.3835 36.6775 78.1093 36.6775ZM84.1559 36.9622C84.0554 36.8282 84.0052 36.6607 84.0052 36.4597C84.0052 36.1694 84.1503 35.9238 84.4406 35.7228C84.5969 35.6224 84.7588 35.5721 84.9263 35.5721C85.1607 35.5721 85.384 35.6782 85.5962 35.8903C85.9311 36.2364 86.2772 36.4932 86.6345 36.6607C87.003 36.8282 87.444 36.9119 87.9576 36.9119C88.8285 36.8784 89.2639 36.5491 89.2639 35.9238C89.2639 35.6 89.1132 35.3544 88.8117 35.1869C88.5214 35.0195 88.0636 34.852 87.4384 34.6845C86.7908 34.5059 86.2605 34.3272 85.8474 34.1486C85.4455 33.9699 85.0938 33.702 84.7923 33.3447C84.502 32.9763 84.3569 32.485 84.3569 31.8709C84.3569 31.335 84.5076 30.8717 84.8091 30.4809C85.1217 30.0789 85.5236 29.7719 86.0149 29.5598C86.5173 29.3365 87.0476 29.2248 87.6059 29.2248C88.1753 29.2248 88.7447 29.3309 89.3141 29.543C89.8835 29.7552 90.3301 30.0678 90.6539 30.4809C90.7991 30.6595 90.8716 30.8605 90.8716 31.0838C90.8716 31.3406 90.7656 31.5527 90.5534 31.7202C90.3971 31.843 90.2185 31.9044 90.0175 31.9044C89.7719 31.9044 89.5709 31.8263 89.4146 31.67C89.2136 31.4243 88.9513 31.2289 88.6275 31.0838C88.3149 30.9386 87.9576 30.8661 87.5556 30.8661C86.7071 30.8661 86.2828 31.1731 86.2828 31.7872C86.2828 32.0328 86.361 32.2338 86.5173 32.3901C86.6736 32.5352 86.869 32.6525 87.1035 32.7418C87.3491 32.8199 87.6896 32.9204 88.1251 33.0432C88.728 33.2107 89.2304 33.3838 89.6323 33.5624C90.0343 33.7411 90.3748 34.0146 90.6539 34.383C90.9331 34.7515 91.0726 35.2372 91.0726 35.8401C91.0726 36.3872 90.9107 36.8673 90.5869 37.2804C90.2632 37.6823 89.8445 37.9893 89.3309 38.2015C88.8285 38.4136 88.3093 38.5197 87.7734 38.5197C87.0365 38.5197 86.3498 38.3969 85.7134 38.1512C85.077 37.9056 84.5578 37.5092 84.1559 36.9622ZM97.4605 29.2248C98.5658 29.2248 99.3306 29.5653 99.7549 30.2464C100.179 30.9163 100.391 31.8486 100.391 33.0432V37.3306C100.391 37.6209 100.296 37.8665 100.107 38.0675C99.9168 38.2573 99.6767 38.3522 99.3864 38.3522C99.0961 38.3522 98.8561 38.2573 98.6663 38.0675C98.4765 37.8665 98.3816 37.6209 98.3816 37.3306V33.0432C98.3816 32.4292 98.2588 31.9491 98.0131 31.603C97.7787 31.2457 97.36 31.067 96.7571 31.067C96.1318 31.067 95.6406 31.2568 95.2833 31.6365C94.9372 32.0049 94.7641 32.4738 94.7641 33.0432V37.3306C94.7641 37.6209 94.6692 37.8665 94.4794 38.0675C94.2896 38.2573 94.0496 38.3522 93.7593 38.3522C93.469 38.3522 93.2289 38.2573 93.0391 38.0675C92.8493 37.8665 92.7544 37.6209 92.7544 37.3306V26.9807C92.7544 26.6904 92.8493 26.4503 93.0391 26.2605C93.2289 26.0595 93.469 25.9591 93.7593 25.9591C94.0496 25.9591 94.2896 26.0595 94.4794 26.2605C94.6692 26.4503 94.7641 26.6904 94.7641 26.9807V30.6818C95.0656 30.2799 95.4452 29.9394 95.903 29.6603C96.3719 29.37 96.8911 29.2248 97.4605 29.2248Z" fill="white"/>
<path d="M23.572 47.6754C23.7721 47.6754 23.9465 47.651 24.0952 47.6023C24.244 47.551 24.367 47.4793 24.4644 47.3873C24.5644 47.2927 24.6388 47.1791 24.6875 47.0466C24.7362 46.9114 24.7605 46.7613 24.7605 46.5963C24.7605 46.4395 24.7362 46.2975 24.6875 46.1704C24.6388 46.0433 24.5658 45.9351 24.4684 45.8459C24.3711 45.7566 24.248 45.689 24.0993 45.6431C23.9506 45.5944 23.7748 45.5701 23.572 45.5701H22.7566V47.6754H23.572ZM23.572 44.7263C23.9641 44.7263 24.3035 44.7723 24.5901 44.8642C24.8768 44.9562 25.1134 45.0846 25.3 45.2496C25.4866 45.4146 25.6245 45.612 25.7138 45.8418C25.8057 46.0717 25.8517 46.3232 25.8517 46.5963C25.8517 46.8803 25.8044 47.1413 25.7097 47.3792C25.6151 47.6145 25.4731 47.8173 25.2838 47.9877C25.0945 48.1581 24.8565 48.2906 24.5698 48.3852C24.2859 48.4799 23.9533 48.5272 23.572 48.5272H22.7566V50.5919H21.6654V44.7263H23.572ZM28.4611 47.5172C28.6667 47.5172 28.8451 47.4915 28.9966 47.4401C29.1507 47.3887 29.2765 47.3184 29.3738 47.2291C29.4739 47.1372 29.5483 47.029 29.5969 46.9046C29.6456 46.7802 29.67 46.6437 29.67 46.4949C29.67 46.1975 29.5713 45.9689 29.3738 45.8094C29.1791 45.6498 28.8803 45.5701 28.4774 45.5701H27.7796V47.5172H28.4611ZM31.2682 50.5919H30.2825C30.0959 50.5919 29.9607 50.5189 29.8768 50.3729L28.6437 48.4948C28.5977 48.4244 28.5463 48.3744 28.4895 48.3447C28.4354 48.3149 28.3543 48.3 28.2461 48.3H27.7796V50.5919H26.6885V44.7263H28.4774C28.8749 44.7263 29.2156 44.7682 29.4996 44.8521C29.7862 44.9332 30.0202 45.0481 30.2014 45.1969C30.3852 45.3456 30.5205 45.5241 30.607 45.7323C30.6935 45.9378 30.7368 46.165 30.7368 46.4138C30.7368 46.6112 30.7071 46.7978 30.6476 46.9736C30.5908 47.1494 30.5069 47.3089 30.3961 47.4522C30.2879 47.5956 30.1527 47.7213 29.9904 47.8295C29.8309 47.9377 29.6483 48.0229 29.4428 48.0851C29.5131 48.1256 29.578 48.1743 29.6375 48.2311C29.697 48.2852 29.7511 48.3501 29.7998 48.4258L31.2682 50.5919ZM32.9969 45.5944V47.221H35.0495V48.0607H32.9969V49.7198H35.6011V50.5919H31.9016V44.7263H35.6011V45.5944H32.9969ZM42.9287 44.7263V50.5919H41.9673V46.8032C41.9673 46.6518 41.9754 46.4882 41.9916 46.3124L40.219 49.6427C40.1351 49.8023 40.0067 49.8821 39.8336 49.8821H39.6795C39.5064 49.8821 39.3779 49.8023 39.2941 49.6427L37.5011 46.3002C37.5093 46.3895 37.516 46.4773 37.5214 46.5639C37.5268 46.6504 37.5295 46.7302 37.5295 46.8032V50.5919H36.5682V44.7263H37.3916C37.4403 44.7263 37.4822 44.7277 37.5174 44.7304C37.5525 44.7331 37.5836 44.7398 37.6107 44.7506C37.6404 44.7615 37.6661 44.779 37.6877 44.8034C37.7121 44.8277 37.7351 44.8602 37.7567 44.9007L39.5131 48.1581C39.5591 48.2446 39.601 48.3339 39.6389 48.4258C39.6795 48.5177 39.7187 48.6124 39.7565 48.7098C39.7944 48.6097 39.8336 48.5137 39.8742 48.4217C39.9147 48.3271 39.958 48.2365 40.004 48.15L41.7361 44.9007C41.7577 44.8602 41.7807 44.8277 41.805 44.8034C41.8294 44.779 41.8551 44.7615 41.8821 44.7506C41.9119 44.7398 41.9443 44.7331 41.9795 44.7304C42.0146 44.7277 42.0566 44.7263 42.1052 44.7263H42.9287ZM45.3326 50.5919H44.2374V44.7263H45.3326V50.5919ZM49.0068 49.7117C49.2177 49.7117 49.4057 49.6765 49.5706 49.6062C49.7383 49.5359 49.8789 49.4372 49.9925 49.3101C50.1061 49.183 50.1926 49.0289 50.2521 48.8477C50.3143 48.6665 50.3454 48.4637 50.3454 48.2392V44.7263H51.4366V48.2392C51.4366 48.5881 51.3798 48.9112 51.2662 49.2087C51.1554 49.5035 50.9945 49.759 50.7835 49.9754C50.5753 50.189 50.3211 50.3567 50.0209 50.4784C49.7207 50.5974 49.3827 50.6569 49.0068 50.6569C48.6282 50.6569 48.2888 50.5974 47.9886 50.4784C47.6884 50.3567 47.4329 50.189 47.2219 49.9754C47.0137 49.759 46.8528 49.5035 46.7392 49.2087C46.6284 48.9112 46.5729 48.5881 46.5729 48.2392V44.7263H47.6641V48.2351C47.6641 48.4596 47.6938 48.6624 47.7533 48.8436C47.8155 49.0248 47.9034 49.1803 48.017 49.3101C48.1333 49.4372 48.2739 49.5359 48.4389 49.6062C48.6066 49.6765 48.7959 49.7117 49.0068 49.7117ZM59.0278 44.7263V50.5919H58.0664V46.8032C58.0664 46.6518 58.0745 46.4882 58.0907 46.3124L56.3181 49.6427C56.2342 49.8023 56.1058 49.8821 55.9327 49.8821H55.7785C55.6055 49.8821 55.477 49.8023 55.3932 49.6427L53.6002 46.3002C53.6083 46.3895 53.6151 46.4773 53.6205 46.5639C53.6259 46.6504 53.6286 46.7302 53.6286 46.8032V50.5919H52.6672V44.7263H53.4907C53.5394 44.7263 53.5813 44.7277 53.6164 44.7304C53.6516 44.7331 53.6827 44.7398 53.7097 44.7506C53.7395 44.7615 53.7652 44.779 53.7868 44.8034C53.8112 44.8277 53.8341 44.8602 53.8558 44.9007L55.6122 48.1581C55.6582 48.2446 55.7001 48.3339 55.738 48.4258C55.7785 48.5177 55.8178 48.6124 55.8556 48.7098C55.8935 48.6097 55.9327 48.5137 55.9733 48.4217C56.0138 48.3271 56.0571 48.2365 56.1031 48.15L57.8352 44.9007C57.8568 44.8602 57.8798 44.8277 57.9041 44.8034C57.9285 44.779 57.9542 44.7615 57.9812 44.7506C58.0109 44.7398 58.0434 44.7331 58.0786 44.7304C58.1137 44.7277 58.1556 44.7263 58.2043 44.7263H59.0278ZM65.139 48.3771L64.4251 46.426C64.3899 46.3394 64.3534 46.2367 64.3156 46.1177C64.2777 45.9987 64.2398 45.8702 64.202 45.7323C64.1668 45.8702 64.1303 46 64.0925 46.1217C64.0546 46.2407 64.0181 46.3448 63.9829 46.4341L63.273 48.3771H65.139ZM67.0658 50.5919H66.2221C66.1274 50.5919 66.0504 50.569 65.9909 50.523C65.9314 50.4743 65.8868 50.4148 65.857 50.3445L65.4189 49.1478H62.9891L62.551 50.3445C62.5294 50.4067 62.4874 50.4635 62.4252 50.5149C62.363 50.5663 62.286 50.5919 62.194 50.5919H61.3422L63.6503 44.7263H64.7618L67.0658 50.5919ZM71.5267 49.2087C71.5862 49.2087 71.639 49.2317 71.6849 49.2777L72.1149 49.7441C71.8769 50.0389 71.5835 50.2647 71.2347 50.4216C70.8885 50.5784 70.4721 50.6569 69.9853 50.6569C69.5499 50.6569 69.1578 50.5825 68.8089 50.4337C68.4628 50.285 68.1666 50.0781 67.9205 49.8131C67.6745 49.5481 67.4851 49.2317 67.3526 48.8639C67.2228 48.4961 67.1579 48.0945 67.1579 47.6591C67.1579 47.2183 67.2282 46.8154 67.3689 46.4503C67.5095 46.0825 67.7069 45.7661 67.9611 45.5011C68.218 45.2361 68.5236 45.0305 68.8779 44.8845C69.2321 44.7358 69.6243 44.6614 70.0542 44.6614C70.4815 44.6614 70.8601 44.7317 71.1901 44.8723C71.5227 45.013 71.8053 45.1969 72.0379 45.424L71.6728 45.9311C71.6511 45.9635 71.6227 45.9919 71.5876 46.0163C71.5551 46.0406 71.5092 46.0528 71.4497 46.0528C71.4091 46.0528 71.3672 46.042 71.3239 46.0203C71.2806 45.996 71.2333 45.9676 71.1819 45.9351C71.1306 45.9 71.0711 45.8621 71.0035 45.8216C70.9358 45.781 70.8574 45.7445 70.7682 45.712C70.6789 45.6769 70.5748 45.6485 70.4558 45.6268C70.3395 45.6025 70.2043 45.5903 70.0502 45.5903C69.7879 45.5903 69.5472 45.6377 69.3281 45.7323C69.1118 45.8243 68.9252 45.9595 68.7683 46.138C68.6115 46.3137 68.4898 46.5301 68.4033 46.787C68.3167 47.0412 68.2735 47.3319 68.2735 47.6591C68.2735 47.9891 68.3194 48.2825 68.4114 48.5394C68.506 48.7963 68.6331 49.0126 68.7927 49.1884C68.9522 49.3642 69.1402 49.4994 69.3565 49.5941C69.5729 49.686 69.8054 49.732 70.0542 49.732C70.203 49.732 70.3368 49.7239 70.4558 49.7076C70.5775 49.6914 70.6884 49.6657 70.7885 49.6306C70.8912 49.5954 70.9872 49.5508 71.0765 49.4967C71.1684 49.4399 71.259 49.371 71.3483 49.2898C71.3753 49.2655 71.4037 49.2466 71.4334 49.233C71.4632 49.2168 71.4943 49.2087 71.5267 49.2087ZM76.7637 49.2087C76.8232 49.2087 76.8759 49.2317 76.9219 49.2777L77.3519 49.7441C77.1139 50.0389 76.8205 50.2647 76.4716 50.4216C76.1255 50.5784 75.709 50.6569 75.2222 50.6569C74.7868 50.6569 74.3947 50.5825 74.0459 50.4337C73.6997 50.285 73.4036 50.0781 73.1575 49.8131C72.9114 49.5481 72.7221 49.2317 72.5896 48.8639C72.4598 48.4961 72.3949 48.0945 72.3949 47.6591C72.3949 47.2183 72.4652 46.8154 72.6058 46.4503C72.7464 46.0825 72.9439 45.7661 73.1981 45.5011C73.455 45.2361 73.7606 45.0305 74.1148 44.8845C74.4691 44.7358 74.8612 44.6614 75.2912 44.6614C75.7185 44.6614 76.0971 44.7317 76.427 44.8723C76.7596 45.013 77.0422 45.1969 77.2748 45.424L76.9097 45.9311C76.8881 45.9635 76.8597 45.9919 76.8245 46.0163C76.7921 46.0406 76.7461 46.0528 76.6866 46.0528C76.6461 46.0528 76.6041 46.042 76.5609 46.0203C76.5176 45.996 76.4703 45.9676 76.4189 45.9351C76.3675 45.9 76.308 45.8621 76.2404 45.8216C76.1728 45.781 76.0944 45.7445 76.0051 45.712C75.9159 45.6769 75.8118 45.6485 75.6928 45.6268C75.5765 45.6025 75.4413 45.5903 75.2871 45.5903C75.0248 45.5903 74.7841 45.6377 74.5651 45.7323C74.3487 45.8243 74.1621 45.9595 74.0053 46.138C73.8484 46.3137 73.7268 46.5301 73.6402 46.787C73.5537 47.0412 73.5104 47.3319 73.5104 47.6591C73.5104 47.9891 73.5564 48.2825 73.6483 48.5394C73.743 48.7963 73.8701 49.0126 74.0296 49.1884C74.1892 49.3642 74.3771 49.4994 74.5935 49.5941C74.8098 49.686 75.0424 49.732 75.2912 49.732C75.4399 49.732 75.5738 49.7239 75.6928 49.7076C75.8145 49.6914 75.9254 49.6657 76.0254 49.6306C76.1282 49.5954 76.2242 49.5508 76.3134 49.4967C76.4054 49.4399 76.496 49.371 76.5852 49.2898C76.6122 49.2655 76.6406 49.2466 76.6704 49.233C76.7001 49.2168 76.7312 49.2087 76.7637 49.2087ZM83.5664 47.6591C83.5664 48.0891 83.4948 48.488 83.3515 48.8558C83.2108 49.2209 83.0107 49.5373 82.7511 49.805C82.4915 50.0727 82.1791 50.2823 81.8141 50.4337C81.449 50.5825 81.0433 50.6569 80.5971 50.6569C80.1536 50.6569 79.7493 50.5825 79.3842 50.4337C79.0191 50.2823 78.7054 50.0727 78.4431 49.805C78.1835 49.5373 77.982 49.2209 77.8387 48.8558C77.6954 48.488 77.6237 48.0891 77.6237 47.6591C77.6237 47.2291 77.6954 46.8316 77.8387 46.4665C77.982 46.0987 78.1835 45.781 78.4431 45.5133C78.7054 45.2455 79.0191 45.0373 79.3842 44.8886C79.7493 44.7371 80.1536 44.6614 80.5971 44.6614C80.8946 44.6614 81.1745 44.6966 81.4368 44.7669C81.6991 44.8345 81.9398 44.9318 82.1589 45.0589C82.3779 45.1833 82.574 45.3361 82.747 45.5173C82.9228 45.6958 83.0716 45.8959 83.1932 46.1177C83.3149 46.3394 83.4069 46.5801 83.4691 46.8397C83.534 47.0993 83.5664 47.3725 83.5664 47.6591ZM82.4509 47.6591C82.4509 47.3373 82.4076 47.0493 82.3211 46.7951C82.2346 46.5382 82.1115 46.3205 81.952 46.142C81.7924 45.9635 81.5977 45.827 81.3678 45.7323C81.1407 45.6377 80.8838 45.5903 80.5971 45.5903C80.3105 45.5903 80.0522 45.6377 79.8223 45.7323C79.5952 45.827 79.4005 45.9635 79.2382 46.142C79.0786 46.3205 78.9556 46.5382 78.8691 46.7951C78.7825 47.0493 78.7393 47.3373 78.7393 47.6591C78.7393 47.9809 78.7825 48.2703 78.8691 48.5272C78.9556 48.7814 79.0786 48.9978 79.2382 49.1762C79.4005 49.352 79.5952 49.4872 79.8223 49.5819C80.0522 49.6765 80.3105 49.7239 80.5971 49.7239C80.8838 49.7239 81.1407 49.6765 81.3678 49.5819C81.5977 49.4872 81.7924 49.352 81.952 49.1762C82.1115 48.9978 82.2346 48.7814 82.3211 48.5272C82.4076 48.2703 82.4509 47.9809 82.4509 47.6591ZM86.8856 49.7117C87.0965 49.7117 87.2845 49.6765 87.4494 49.6062C87.6171 49.5359 87.7577 49.4372 87.8713 49.3101C87.9849 49.183 88.0714 49.0289 88.1309 48.8477C88.1931 48.6665 88.2242 48.4637 88.2242 48.2392V44.7263H89.3154V48.2392C89.3154 48.5881 89.2586 48.9112 89.145 49.2087C89.0341 49.5035 88.8732 49.759 88.6623 49.9754C88.4541 50.189 88.1999 50.3567 87.8997 50.4784C87.5995 50.5974 87.2615 50.6569 86.8856 50.6569C86.507 50.6569 86.1676 50.5974 85.8674 50.4784C85.5672 50.3567 85.3117 50.189 85.1007 49.9754C84.8925 49.759 84.7316 49.5035 84.618 49.2087C84.5071 48.9112 84.4517 48.5881 84.4517 48.2392V44.7263H85.5429V48.2351C85.5429 48.4596 85.5726 48.6624 85.6321 48.8436C85.6943 49.0248 85.7822 49.1803 85.8958 49.3101C86.0121 49.4372 86.1527 49.5359 86.3177 49.6062C86.4853 49.6765 86.6746 49.7117 86.8856 49.7117ZM95.4909 44.7263V50.5919H94.9311C94.8445 50.5919 94.7715 50.5784 94.712 50.5514C94.6552 50.5216 94.5998 50.473 94.5457 50.4054L91.4831 46.4949C91.4993 46.6734 91.5074 46.8384 91.5074 46.9898V50.5919H90.546V44.7263H91.118C91.164 44.7263 91.2032 44.729 91.2356 44.7344C91.2708 44.7371 91.3005 44.7452 91.3249 44.7588C91.3519 44.7696 91.3776 44.7872 91.4019 44.8115C91.4263 44.8331 91.4533 44.8629 91.4831 44.9007L94.5579 48.8274C94.5498 48.7327 94.543 48.6394 94.5376 48.5475C94.5322 48.4555 94.5295 48.3704 94.5295 48.2919V44.7263H95.4909ZM100.894 45.6228H99.1255V50.5919H98.0343V45.6228H96.2657V44.7263H100.894V45.6228Z" fill="white" fill-opacity="0.39"/>
<path d="M26.7291 110.238C27.6604 110.238 28.5058 110.453 29.2652 110.883C30.0245 111.298 30.6191 111.885 31.049 112.645C31.4788 113.39 31.6937 114.228 31.6937 115.159C31.6937 116.148 31.4358 117.044 30.92 117.846C30.4186 118.648 29.7237 119.286 28.8353 119.759C27.9613 120.217 27.0014 120.446 25.9554 120.446C25.368 120.446 24.7806 120.353 24.1931 120.167C23.6057 119.981 23.1114 119.723 22.7102 119.393C22.5669 119.279 22.4523 119.128 22.3663 118.942C22.2803 118.756 22.2374 118.569 22.2374 118.383C22.2374 118.168 22.3233 117.975 22.4953 117.803C22.6815 117.617 22.9179 117.523 23.2045 117.523C23.3908 117.523 23.6415 117.631 23.9567 117.846C24.6015 118.319 25.2605 118.555 25.9339 118.555C26.6217 118.555 27.2449 118.405 27.8037 118.104C28.3768 117.803 28.8282 117.395 29.1577 116.879C29.4872 116.363 29.652 115.797 29.652 115.181C29.652 114.264 29.3511 113.526 28.7494 112.967C28.1476 112.408 27.3882 112.129 26.4712 112.129C26.0844 112.129 25.7405 112.179 25.4396 112.28C25.1531 112.38 24.802 112.53 24.3865 112.731C24.2146 112.817 24.0427 112.896 23.8707 112.967C23.7131 113.025 23.577 113.053 23.4624 113.053C23.0469 113.053 22.7388 112.931 22.5382 112.688C22.3377 112.444 22.2374 112.165 22.2374 111.85L22.2589 111.635L23.0326 106.068C23.0755 105.839 23.1902 105.646 23.3764 105.488C23.577 105.33 23.8134 105.252 24.0857 105.252H30.4042C30.6765 105.252 30.8985 105.345 31.0705 105.531C31.2567 105.717 31.3499 105.947 31.3499 106.219C31.3499 106.491 31.2567 106.72 31.0705 106.907C30.8985 107.078 30.6765 107.164 30.4042 107.164H24.7949L24.2361 110.84C24.5513 110.668 24.931 110.524 25.3752 110.41C25.8336 110.295 26.285 110.238 26.7291 110.238ZM43.1141 105.252C43.415 105.252 43.6657 105.345 43.8663 105.531C44.0812 105.717 44.1887 105.954 44.1887 106.24C44.1887 106.384 44.1529 106.541 44.0812 106.713L38.3214 119.737C38.2355 119.938 38.1065 120.095 37.9346 120.21C37.7626 120.325 37.5764 120.382 37.3758 120.382C37.1036 120.382 36.86 120.289 36.6451 120.103C36.4301 119.916 36.3227 119.687 36.3227 119.415C36.3227 119.271 36.3585 119.114 36.4301 118.942L41.6741 107.143H35.463C35.1908 107.143 34.9615 107.05 34.7753 106.864C34.589 106.677 34.4959 106.448 34.4959 106.176C34.4959 105.904 34.5819 105.682 34.7538 105.51C34.9401 105.338 35.1765 105.252 35.463 105.252H43.1141ZM53.7923 112.516C54.48 112.903 55.0245 113.404 55.4257 114.02C55.8412 114.636 56.0489 115.296 56.0489 115.998C56.0489 116.786 55.834 117.516 55.4042 118.19C54.9743 118.849 54.3869 119.379 53.6419 119.78C52.8968 120.167 52.0801 120.36 51.1918 120.36C50.3035 120.36 49.4868 120.167 48.7417 119.78C47.9967 119.379 47.4092 118.849 46.9794 118.19C46.5496 117.516 46.3347 116.786 46.3347 115.998C46.3347 115.224 46.5352 114.55 46.9364 113.977C47.3519 113.39 47.8821 112.91 48.5268 112.537C47.9967 112.237 47.5597 111.828 47.2158 111.312C46.872 110.782 46.7 110.166 46.7 109.464C46.7 108.69 46.9006 107.981 47.3018 107.336C47.703 106.692 48.2403 106.183 48.9137 105.81C49.6014 105.438 50.3608 105.252 51.1918 105.252C52.0085 105.252 52.7607 105.438 53.4484 105.81C54.1362 106.183 54.6735 106.692 55.0603 107.336C55.4615 107.981 55.6621 108.69 55.6621 109.464C55.6621 110.195 55.483 110.818 55.1248 111.334C54.7666 111.835 54.3224 112.229 53.7923 112.516ZM51.1918 107.143C50.4754 107.143 49.888 107.365 49.4295 107.809C48.971 108.253 48.7417 108.819 48.7417 109.507C48.7417 110.18 48.9781 110.746 49.451 111.205C49.9238 111.649 50.5041 111.871 51.1918 111.871C51.8652 111.871 52.4383 111.649 52.9111 111.205C53.384 110.746 53.6204 110.18 53.6204 109.507C53.6204 108.819 53.3911 108.253 52.9326 107.809C52.4741 107.365 51.8939 107.143 51.1918 107.143ZM51.1918 118.469C51.9942 118.469 52.6604 118.233 53.1905 117.76C53.735 117.287 54.0072 116.692 54.0072 115.976C54.0072 115.26 53.7278 114.658 53.169 114.171C52.6246 113.684 51.9655 113.44 51.1918 113.44C50.4181 113.44 49.759 113.684 49.2146 114.171C48.6701 114.658 48.3979 115.26 48.3979 115.976C48.3979 116.692 48.6629 117.287 49.1931 117.76C49.7232 118.233 50.3894 118.469 51.1918 118.469ZM63.2943 104.994C64.3259 104.994 65.2143 105.259 65.9593 105.789C66.7187 106.319 67.2918 107.014 67.6787 107.874C68.0798 108.733 68.2804 109.658 68.2804 110.646C68.2804 111.749 68.0655 112.953 67.6357 114.257C67.2058 115.561 66.5038 116.778 65.5295 117.91C64.5552 119.028 63.3015 119.83 61.7684 120.317C61.6395 120.36 61.5105 120.382 61.3816 120.382C61.095 120.382 60.8443 120.303 60.6294 120.145C60.4288 119.974 60.3285 119.723 60.3285 119.393C60.3285 119.15 60.4073 118.935 60.5649 118.749C60.7225 118.562 60.9374 118.433 61.2096 118.362C62.2269 118.003 63.1654 117.402 64.0251 116.556C64.8991 115.711 65.5152 114.744 65.8734 113.655C65.0423 114.457 64.0752 114.859 62.972 114.859C62.1839 114.859 61.4317 114.636 60.7153 114.192C60.0133 113.734 59.4473 113.125 59.0175 112.365C58.602 111.592 58.3942 110.768 58.3942 109.894C58.3942 109.02 58.6091 108.21 59.039 107.465C59.4831 106.706 60.0777 106.104 60.8228 105.66C61.5678 105.216 62.3917 104.994 63.2943 104.994ZM63.2514 112.946C64.1254 112.946 64.8346 112.652 65.379 112.065C65.9378 111.477 66.2172 110.746 66.2172 109.872C66.2172 109.041 65.945 108.339 65.4005 107.766C64.8561 107.179 64.154 106.885 63.2943 106.885C62.492 106.885 61.8186 107.172 61.2741 107.745C60.7297 108.318 60.4574 109.034 60.4574 109.894C60.4574 110.754 60.7153 111.477 61.2311 112.065C61.7613 112.652 62.4347 112.946 63.2514 112.946Z" fill="white"/>
<path d="M230.947 118.405C231.219 118.405 231.448 118.498 231.635 118.684C231.821 118.87 231.914 119.1 231.914 119.372C231.914 119.644 231.821 119.866 231.635 120.038C231.448 120.21 231.219 120.296 230.947 120.296H223.317C223.031 120.296 222.794 120.21 222.608 120.038C222.422 119.852 222.329 119.608 222.329 119.307C222.329 119.049 222.429 118.806 222.63 118.577L227.422 113.376C228.755 111.957 229.421 110.703 229.421 109.615C229.421 108.841 229.163 108.203 228.647 107.702C228.146 107.186 227.501 106.928 226.713 106.928C226.183 106.928 225.674 107.078 225.187 107.379C224.7 107.68 224.306 108.11 224.005 108.669C223.776 108.97 223.504 109.12 223.188 109.12C222.945 109.12 222.716 109.027 222.501 108.841C222.286 108.655 222.178 108.44 222.178 108.196C222.178 108.038 222.228 107.874 222.329 107.702C222.443 107.53 222.601 107.329 222.802 107.1C223.274 106.47 223.876 105.968 224.607 105.596C225.338 105.223 226.075 105.037 226.821 105.037C227.78 105.037 228.612 105.23 229.314 105.617C230.016 106.004 230.553 106.534 230.925 107.207C231.312 107.881 231.506 108.655 231.506 109.529C231.506 111.176 230.617 112.953 228.841 114.859L225.595 118.405H230.947ZM241.496 112.516C242.183 112.903 242.728 113.404 243.129 114.02C243.545 114.636 243.752 115.296 243.752 115.998C243.752 116.786 243.537 117.516 243.108 118.19C242.678 118.849 242.09 119.379 241.345 119.78C240.6 120.167 239.784 120.36 238.895 120.36C238.007 120.36 237.19 120.167 236.445 119.78C235.7 119.379 235.113 118.849 234.683 118.19C234.253 117.516 234.038 116.786 234.038 115.998C234.038 115.224 234.239 114.55 234.64 113.977C235.055 113.39 235.585 112.91 236.23 112.537C235.7 112.237 235.263 111.828 234.919 111.312C234.575 110.782 234.403 110.166 234.403 109.464C234.403 108.69 234.604 107.981 235.005 107.336C235.406 106.692 235.944 106.183 236.617 105.81C237.305 105.438 238.064 105.252 238.895 105.252C239.712 105.252 240.464 105.438 241.152 105.81C241.84 106.183 242.377 106.692 242.764 107.336C243.165 107.981 243.365 108.69 243.365 109.464C243.365 110.195 243.186 110.818 242.828 111.334C242.47 111.835 242.026 112.229 241.496 112.516ZM238.895 107.143C238.179 107.143 237.591 107.365 237.133 107.809C236.674 108.253 236.445 108.819 236.445 109.507C236.445 110.18 236.682 110.746 237.154 111.205C237.627 111.649 238.207 111.871 238.895 111.871C239.569 111.871 240.142 111.649 240.615 111.205C241.087 110.746 241.324 110.18 241.324 109.507C241.324 108.819 241.095 108.253 240.636 107.809C240.178 107.365 239.597 107.143 238.895 107.143ZM238.895 118.469C239.698 118.469 240.364 118.233 240.894 117.76C241.438 117.287 241.711 116.692 241.711 115.976C241.711 115.26 241.431 114.658 240.872 114.171C240.328 113.684 239.669 113.44 238.895 113.44C238.121 113.44 237.462 113.684 236.918 114.171C236.373 114.658 236.101 115.26 236.101 115.976C236.101 116.692 236.366 117.287 236.896 117.76C237.427 118.233 238.093 118.469 238.895 118.469ZM256.629 114.106C256.901 114.106 257.13 114.199 257.316 114.386C257.503 114.558 257.596 114.78 257.596 115.052C257.596 115.324 257.503 115.546 257.316 115.718C257.13 115.89 256.901 115.976 256.629 115.976H255.49V119.264C255.49 119.551 255.389 119.794 255.189 119.995C254.988 120.196 254.744 120.296 254.458 120.296C254.171 120.296 253.928 120.196 253.727 119.995C253.541 119.794 253.448 119.551 253.448 119.264V115.976H247.559C247.301 115.976 247.065 115.876 246.85 115.675C246.649 115.475 246.549 115.238 246.549 114.966C246.549 114.708 246.628 114.479 246.785 114.278L253.641 105.66C253.742 105.531 253.863 105.431 254.007 105.359C254.164 105.288 254.322 105.252 254.479 105.252C254.766 105.252 255.002 105.352 255.189 105.553C255.389 105.753 255.49 105.997 255.49 106.283V114.106H256.629ZM253.448 114.106V108.733L249.257 114.106H253.448ZM268.869 105.252C269.17 105.252 269.42 105.345 269.621 105.531C269.836 105.717 269.943 105.954 269.943 106.24C269.943 106.384 269.908 106.541 269.836 106.713L264.076 119.737C263.99 119.938 263.861 120.095 263.689 120.21C263.517 120.325 263.331 120.382 263.131 120.382C262.858 120.382 262.615 120.289 262.4 120.103C262.185 119.916 262.077 119.687 262.077 119.415C262.077 119.271 262.113 119.114 262.185 118.942L267.429 107.143H261.218C260.946 107.143 260.716 107.05 260.53 106.864C260.344 106.677 260.251 106.448 260.251 106.176C260.251 105.904 260.337 105.682 260.509 105.51C260.695 105.338 260.931 105.252 261.218 105.252H268.869Z" fill="white"/>
<path d="M89.1733 111.914C88.987 111.914 88.8365 111.857 88.7219 111.742C88.6216 111.613 88.5858 111.456 88.6145 111.269L88.7864 109.443C88.8007 109.4 88.7936 109.371 88.7649 109.357C88.7363 109.342 88.7004 109.349 88.6575 109.378L87.153 110.431C87.0241 110.517 86.8951 110.56 86.7662 110.56C86.5656 110.56 86.4008 110.46 86.2719 110.259C86.2146 110.145 86.1859 110.03 86.1859 109.915C86.1859 109.686 86.3077 109.514 86.5513 109.4L88.2491 108.626C88.2921 108.612 88.3136 108.59 88.3136 108.561C88.3136 108.533 88.2921 108.511 88.2491 108.497L86.5513 107.723C86.4366 107.666 86.3435 107.594 86.2719 107.508C86.2146 107.408 86.1859 107.301 86.1859 107.186C86.1859 107.071 86.2146 106.964 86.2719 106.864C86.4008 106.663 86.5727 106.563 86.7877 106.563C86.888 106.563 87.0097 106.599 87.153 106.67L88.6575 107.766C88.7004 107.795 88.7363 107.802 88.7649 107.788C88.7936 107.773 88.8007 107.745 88.7864 107.702L88.6145 105.875C88.6001 105.689 88.6431 105.531 88.7434 105.402C88.858 105.273 89.0156 105.209 89.2162 105.209C89.3882 105.209 89.5243 105.273 89.6246 105.402C89.7392 105.531 89.7894 105.689 89.775 105.875L89.6031 107.702C89.5888 107.745 89.5959 107.773 89.6246 107.788C89.6532 107.802 89.6891 107.795 89.732 107.766L91.2365 106.692C91.3511 106.606 91.4729 106.563 91.6018 106.563C91.8311 106.563 92.003 106.663 92.1176 106.864C92.1749 106.964 92.2036 107.071 92.2036 107.186C92.2036 107.43 92.0746 107.609 91.8167 107.723L90.1404 108.497C90.0974 108.511 90.0759 108.533 90.0759 108.561C90.0759 108.59 90.0974 108.612 90.1404 108.626L91.8167 109.4C92.0746 109.529 92.2036 109.715 92.2036 109.958C92.2036 110.016 92.1749 110.116 92.1176 110.259C91.9743 110.474 91.8024 110.582 91.6018 110.582C91.4585 110.582 91.3368 110.539 91.2365 110.453L89.732 109.378C89.6891 109.349 89.6532 109.342 89.6246 109.357C89.5959 109.371 89.5888 109.4 89.6031 109.443L89.775 111.269C89.7894 111.456 89.7392 111.613 89.6246 111.742C89.51 111.857 89.3595 111.914 89.1733 111.914ZM102.459 111.914C102.272 111.914 102.122 111.857 102.007 111.742C101.907 111.613 101.871 111.456 101.9 111.269L102.072 109.443C102.086 109.4 102.079 109.371 102.05 109.357C102.022 109.342 101.986 109.349 101.943 109.378L100.438 110.431C100.31 110.517 100.181 110.56 100.052 110.56C99.851 110.56 99.6863 110.46 99.5573 110.259C99.5 110.145 99.4713 110.03 99.4713 109.915C99.4713 109.686 99.5931 109.514 99.8367 109.4L101.535 108.626C101.578 108.612 101.599 108.59 101.599 108.561C101.599 108.533 101.578 108.511 101.535 108.497L99.8367 107.723C99.7221 107.666 99.6289 107.594 99.5573 107.508C99.5 107.408 99.4713 107.301 99.4713 107.186C99.4713 107.071 99.5 106.964 99.5573 106.864C99.6863 106.663 99.8582 106.563 100.073 106.563C100.173 106.563 100.295 106.599 100.438 106.67L101.943 107.766C101.986 107.795 102.022 107.802 102.05 107.788C102.079 107.773 102.086 107.745 102.072 107.702L101.9 105.875C101.886 105.689 101.929 105.531 102.029 105.402C102.143 105.273 102.301 105.209 102.502 105.209C102.674 105.209 102.81 105.273 102.91 105.402C103.025 105.531 103.075 105.689 103.06 105.875L102.889 107.702C102.874 107.745 102.881 107.773 102.91 107.788C102.939 107.802 102.974 107.795 103.017 107.766L104.522 106.692C104.637 106.606 104.758 106.563 104.887 106.563C105.117 106.563 105.288 106.663 105.403 106.864C105.46 106.964 105.489 107.071 105.489 107.186C105.489 107.43 105.36 107.609 105.102 107.723L103.426 108.497C103.383 108.511 103.361 108.533 103.361 108.561C103.361 108.59 103.383 108.612 103.426 108.626L105.102 109.4C105.36 109.529 105.489 109.715 105.489 109.958C105.489 110.016 105.46 110.116 105.403 110.259C105.26 110.474 105.088 110.582 104.887 110.582C104.744 110.582 104.622 110.539 104.522 110.453L103.017 109.378C102.974 109.349 102.939 109.342 102.91 109.357C102.881 109.371 102.874 109.4 102.889 109.443L103.06 111.269C103.075 111.456 103.025 111.613 102.91 111.742C102.795 111.857 102.645 111.914 102.459 111.914ZM115.744 111.914C115.558 111.914 115.407 111.857 115.293 111.742C115.193 111.613 115.157 111.456 115.185 111.269L115.357 109.443C115.372 109.4 115.364 109.371 115.336 109.357C115.307 109.342 115.271 109.349 115.228 109.378L113.724 110.431C113.595 110.517 113.466 110.56 113.337 110.56C113.136 110.56 112.972 110.46 112.843 110.259C112.785 110.145 112.757 110.03 112.757 109.915C112.757 109.686 112.879 109.514 113.122 109.4L114.82 108.626C114.863 108.612 114.884 108.59 114.884 108.561C114.884 108.533 114.863 108.511 114.82 108.497L113.122 107.723C113.008 107.666 112.914 107.594 112.843 107.508C112.785 107.408 112.757 107.301 112.757 107.186C112.757 107.071 112.785 106.964 112.843 106.864C112.972 106.663 113.144 106.563 113.359 106.563C113.459 106.563 113.581 106.599 113.724 106.67L115.228 107.766C115.271 107.795 115.307 107.802 115.336 107.788C115.364 107.773 115.372 107.745 115.357 107.702L115.185 105.875C115.171 105.689 115.214 105.531 115.314 105.402C115.429 105.273 115.587 105.209 115.787 105.209C115.959 105.209 116.095 105.273 116.195 105.402C116.31 105.531 116.36 105.689 116.346 105.875L116.174 107.702C116.16 107.745 116.167 107.773 116.195 107.788C116.224 107.802 116.26 107.795 116.303 107.766L117.807 106.692C117.922 106.606 118.044 106.563 118.173 106.563C118.402 106.563 118.574 106.663 118.688 106.864C118.746 106.964 118.774 107.071 118.774 107.186C118.774 107.43 118.646 107.609 118.388 107.723L116.711 108.497C116.668 108.511 116.647 108.533 116.647 108.561C116.647 108.59 116.668 108.612 116.711 108.626L118.388 109.4C118.646 109.529 118.774 109.715 118.774 109.958C118.774 110.016 118.746 110.116 118.688 110.259C118.545 110.474 118.373 110.582 118.173 110.582C118.029 110.582 117.908 110.539 117.807 110.453L116.303 109.378C116.26 109.349 116.224 109.342 116.195 109.357C116.167 109.371 116.16 109.4 116.174 109.443L116.346 111.269C116.36 111.456 116.31 111.613 116.195 111.742C116.081 111.857 115.93 111.914 115.744 111.914ZM129.03 111.914C128.843 111.914 128.693 111.857 128.578 111.742C128.478 111.613 128.442 111.456 128.471 111.269L128.643 109.443C128.657 109.4 128.65 109.371 128.621 109.357C128.593 109.342 128.557 109.349 128.514 109.378L127.009 110.431C126.88 110.517 126.751 110.56 126.622 110.56C126.422 110.56 126.257 110.46 126.128 110.259C126.071 110.145 126.042 110.03 126.042 109.915C126.042 109.686 126.164 109.514 126.408 109.4L128.105 108.626C128.148 108.612 128.17 108.59 128.17 108.561C128.17 108.533 128.148 108.511 128.105 108.497L126.408 107.723C126.293 107.666 126.2 107.594 126.128 107.508C126.071 107.408 126.042 107.301 126.042 107.186C126.042 107.071 126.071 106.964 126.128 106.864C126.257 106.663 126.429 106.563 126.644 106.563C126.744 106.563 126.866 106.599 127.009 106.67L128.514 107.766C128.557 107.795 128.593 107.802 128.621 107.788C128.65 107.773 128.657 107.745 128.643 107.702L128.471 105.875C128.456 105.689 128.499 105.531 128.6 105.402C128.714 105.273 128.872 105.209 129.073 105.209C129.244 105.209 129.381 105.273 129.481 105.402C129.596 105.531 129.646 105.689 129.631 105.875L129.459 107.702C129.445 107.745 129.452 107.773 129.481 107.788C129.51 107.802 129.545 107.795 129.588 107.766L131.093 106.692C131.207 106.606 131.329 106.563 131.458 106.563C131.687 106.563 131.859 106.663 131.974 106.864C132.031 106.964 132.06 107.071 132.06 107.186C132.06 107.43 131.931 107.609 131.673 107.723L129.997 108.497C129.954 108.511 129.932 108.533 129.932 108.561C129.932 108.59 129.954 108.612 129.997 108.626L131.673 109.4C131.931 109.529 132.06 109.715 132.06 109.958C132.06 110.016 132.031 110.116 131.974 110.259C131.831 110.474 131.659 110.582 131.458 110.582C131.315 110.582 131.193 110.539 131.093 110.453L129.588 109.378C129.545 109.349 129.51 109.342 129.481 109.357C129.452 109.371 129.445 109.4 129.459 109.443L129.631 111.269C129.646 111.456 129.596 111.613 129.481 111.742C129.366 111.857 129.216 111.914 129.03 111.914Z" fill="white"/>
<path d="M161.102 111.914C160.916 111.914 160.765 111.857 160.651 111.742C160.55 111.613 160.515 111.456 160.543 111.269L160.715 109.443C160.729 109.4 160.722 109.371 160.694 109.357C160.665 109.342 160.629 109.349 160.586 109.378L159.082 110.431C158.953 110.517 158.824 110.56 158.695 110.56C158.494 110.56 158.33 110.46 158.201 110.259C158.143 110.145 158.115 110.03 158.115 109.915C158.115 109.686 158.236 109.514 158.48 109.4L160.178 108.626C160.221 108.612 160.242 108.59 160.242 108.561C160.242 108.533 160.221 108.511 160.178 108.497L158.48 107.723C158.365 107.666 158.272 107.594 158.201 107.508C158.143 107.408 158.115 107.301 158.115 107.186C158.115 107.071 158.143 106.964 158.201 106.864C158.33 106.663 158.501 106.563 158.716 106.563C158.817 106.563 158.938 106.599 159.082 106.67L160.586 107.766C160.629 107.795 160.665 107.802 160.694 107.788C160.722 107.773 160.729 107.745 160.715 107.702L160.543 105.875C160.529 105.689 160.572 105.531 160.672 105.402C160.787 105.273 160.944 105.209 161.145 105.209C161.317 105.209 161.453 105.273 161.553 105.402C161.668 105.531 161.718 105.689 161.704 105.875L161.532 107.702C161.517 107.745 161.525 107.773 161.553 107.788C161.582 107.802 161.618 107.795 161.661 107.766L163.165 106.692C163.28 106.606 163.402 106.563 163.531 106.563C163.76 106.563 163.932 106.663 164.046 106.864C164.104 106.964 164.132 107.071 164.132 107.186C164.132 107.43 164.003 107.609 163.745 107.723L162.069 108.497C162.026 108.511 162.005 108.533 162.005 108.561C162.005 108.59 162.026 108.612 162.069 108.626L163.745 109.4C164.003 109.529 164.132 109.715 164.132 109.958C164.132 110.016 164.104 110.116 164.046 110.259C163.903 110.474 163.731 110.582 163.531 110.582C163.387 110.582 163.265 110.539 163.165 110.453L161.661 109.378C161.618 109.349 161.582 109.342 161.553 109.357C161.525 109.371 161.517 109.4 161.532 109.443L161.704 111.269C161.718 111.456 161.668 111.613 161.553 111.742C161.439 111.857 161.288 111.914 161.102 111.914ZM174.387 111.914C174.201 111.914 174.051 111.857 173.936 111.742C173.836 111.613 173.8 111.456 173.829 111.269L174.001 109.443C174.015 109.4 174.008 109.371 173.979 109.357C173.95 109.342 173.915 109.349 173.872 109.378L172.367 110.431C172.238 110.517 172.109 110.56 171.98 110.56C171.78 110.56 171.615 110.46 171.486 110.259C171.429 110.145 171.4 110.03 171.4 109.915C171.4 109.686 171.522 109.514 171.765 109.4L173.463 108.626C173.506 108.612 173.528 108.59 173.528 108.561C173.528 108.533 173.506 108.511 173.463 108.497L171.765 107.723C171.651 107.666 171.558 107.594 171.486 107.508C171.429 107.408 171.4 107.301 171.4 107.186C171.4 107.071 171.429 106.964 171.486 106.864C171.615 106.663 171.787 106.563 172.002 106.563C172.102 106.563 172.224 106.599 172.367 106.67L173.872 107.766C173.915 107.795 173.95 107.802 173.979 107.788C174.008 107.773 174.015 107.745 174.001 107.702L173.829 105.875C173.814 105.689 173.857 105.531 173.958 105.402C174.072 105.273 174.23 105.209 174.43 105.209C174.602 105.209 174.738 105.273 174.839 105.402C174.953 105.531 175.003 105.689 174.989 105.875L174.817 107.702C174.803 107.745 174.81 107.773 174.839 107.788C174.867 107.802 174.903 107.795 174.946 107.766L176.451 106.692C176.565 106.606 176.687 106.563 176.816 106.563C177.045 106.563 177.217 106.663 177.332 106.864C177.389 106.964 177.418 107.071 177.418 107.186C177.418 107.43 177.289 107.609 177.031 107.723L175.355 108.497C175.312 108.511 175.29 108.533 175.29 108.561C175.29 108.59 175.312 108.612 175.355 108.626L177.031 109.4C177.289 109.529 177.418 109.715 177.418 109.958C177.418 110.016 177.389 110.116 177.332 110.259C177.188 110.474 177.017 110.582 176.816 110.582C176.673 110.582 176.551 110.539 176.451 110.453L174.946 109.378C174.903 109.349 174.867 109.342 174.839 109.357C174.81 109.371 174.803 109.4 174.817 109.443L174.989 111.269C175.003 111.456 174.953 111.613 174.839 111.742C174.724 111.857 174.574 111.914 174.387 111.914ZM187.673 111.914C187.487 111.914 187.336 111.857 187.222 111.742C187.121 111.613 187.085 111.456 187.114 111.269L187.286 109.443C187.3 109.4 187.293 109.371 187.264 109.357C187.236 109.342 187.2 109.349 187.157 109.378L185.653 110.431C185.524 110.517 185.395 110.56 185.266 110.56C185.065 110.56 184.9 110.46 184.771 110.259C184.714 110.145 184.685 110.03 184.685 109.915C184.685 109.686 184.807 109.514 185.051 109.4L186.749 108.626C186.792 108.612 186.813 108.59 186.813 108.561C186.813 108.533 186.792 108.511 186.749 108.497L185.051 107.723C184.936 107.666 184.843 107.594 184.771 107.508C184.714 107.408 184.685 107.301 184.685 107.186C184.685 107.071 184.714 106.964 184.771 106.864C184.9 106.663 185.072 106.563 185.287 106.563C185.388 106.563 185.509 106.599 185.653 106.67L187.157 107.766C187.2 107.795 187.236 107.802 187.264 107.788C187.293 107.773 187.3 107.745 187.286 107.702L187.114 105.875C187.1 105.689 187.143 105.531 187.243 105.402C187.358 105.273 187.515 105.209 187.716 105.209C187.888 105.209 188.024 105.273 188.124 105.402C188.239 105.531 188.289 105.689 188.275 105.875L188.103 107.702C188.088 107.745 188.096 107.773 188.124 107.788C188.153 107.802 188.189 107.795 188.232 107.766L189.736 106.692C189.851 106.606 189.972 106.563 190.101 106.563C190.331 106.563 190.503 106.663 190.617 106.864C190.675 106.964 190.703 107.071 190.703 107.186C190.703 107.43 190.574 107.609 190.316 107.723L188.64 108.497C188.597 108.511 188.575 108.533 188.575 108.561C188.575 108.59 188.597 108.612 188.64 108.626L190.316 109.4C190.574 109.529 190.703 109.715 190.703 109.958C190.703 110.016 190.675 110.116 190.617 110.259C190.474 110.474 190.302 110.582 190.101 110.582C189.958 110.582 189.836 110.539 189.736 110.453L188.232 109.378C188.189 109.349 188.153 109.342 188.124 109.357C188.096 109.371 188.088 109.4 188.103 109.443L188.275 111.269C188.289 111.456 188.239 111.613 188.124 111.742C188.01 111.857 187.859 111.914 187.673 111.914ZM200.958 111.914C200.772 111.914 200.622 111.857 200.507 111.742C200.407 111.613 200.371 111.456 200.399 111.269L200.571 109.443C200.586 109.4 200.579 109.371 200.55 109.357C200.521 109.342 200.485 109.349 200.442 109.378L198.938 110.431C198.809 110.517 198.68 110.56 198.551 110.56C198.351 110.56 198.186 110.46 198.057 110.259C198 110.145 197.971 110.03 197.971 109.915C197.971 109.686 198.093 109.514 198.336 109.4L200.034 108.626C200.077 108.612 200.099 108.59 200.099 108.561C200.099 108.533 200.077 108.511 200.034 108.497L198.336 107.723C198.222 107.666 198.129 107.594 198.057 107.508C198 107.408 197.971 107.301 197.971 107.186C197.971 107.071 198 106.964 198.057 106.864C198.186 106.663 198.358 106.563 198.573 106.563C198.673 106.563 198.795 106.599 198.938 106.67L200.442 107.766C200.485 107.795 200.521 107.802 200.55 107.788C200.579 107.773 200.586 107.745 200.571 107.702L200.399 105.875C200.385 105.689 200.428 105.531 200.528 105.402C200.643 105.273 200.801 105.209 201.001 105.209C201.173 105.209 201.309 105.273 201.41 105.402C201.524 105.531 201.574 105.689 201.56 105.875L201.388 107.702C201.374 107.745 201.381 107.773 201.41 107.788C201.438 107.802 201.474 107.795 201.517 107.766L203.021 106.692C203.136 106.606 203.258 106.563 203.387 106.563C203.616 106.563 203.788 106.663 203.903 106.864C203.96 106.964 203.989 107.071 203.989 107.186C203.989 107.43 203.86 107.609 203.602 107.723L201.925 108.497C201.882 108.511 201.861 108.533 201.861 108.561C201.861 108.59 201.882 108.612 201.925 108.626L203.602 109.4C203.86 109.529 203.989 109.715 203.989 109.958C203.989 110.016 203.96 110.116 203.903 110.259C203.759 110.474 203.587 110.582 203.387 110.582C203.244 110.582 203.122 110.539 203.021 110.453L201.517 109.378C201.474 109.349 201.438 109.342 201.41 109.357C201.381 109.371 201.374 109.4 201.388 109.443L201.56 111.269C201.574 111.456 201.524 111.613 201.41 111.742C201.295 111.857 201.145 111.914 200.958 111.914Z" fill="white"/>
<path d="M31.6545 174.082V183.141H30.4812V176.694C30.4812 176.597 30.4833 176.494 30.4875 176.385C30.4959 176.276 30.5043 176.164 30.5127 176.051L27.4973 181.583C27.3922 181.789 27.2303 181.892 27.0116 181.892H26.8223C26.6036 181.892 26.4438 181.789 26.3429 181.583L23.2707 176.032C23.296 176.267 23.3086 176.488 23.3086 176.694V183.141H22.1289V174.082H23.1256C23.2434 174.082 23.3338 174.095 23.3969 174.12C23.4642 174.141 23.5273 174.204 23.5861 174.309L26.6142 179.735C26.673 179.844 26.7277 179.96 26.7782 180.082C26.8286 180.204 26.877 180.326 26.9233 180.447C27.0116 180.199 27.1146 179.96 27.2324 179.728L30.2036 174.309C30.2583 174.204 30.3172 174.141 30.3802 174.12C30.4475 174.095 30.5401 174.082 30.6578 174.082H31.6545ZM34.8315 176.732V183.141H33.6014V176.732H34.8315ZM35.0649 174.751C35.0649 174.865 35.0418 174.974 34.9955 175.079C34.9492 175.18 34.8862 175.27 34.8063 175.35C34.7306 175.426 34.6401 175.487 34.535 175.533C34.4299 175.575 34.3205 175.596 34.207 175.596C34.0934 175.596 33.9862 175.575 33.8852 175.533C33.7843 175.487 33.6939 175.426 33.614 175.35C33.5383 175.27 33.4773 175.18 33.431 175.079C33.389 174.974 33.3679 174.865 33.3679 174.751C33.3679 174.633 33.389 174.524 33.431 174.423C33.4773 174.318 33.5383 174.227 33.614 174.152C33.6939 174.072 33.7843 174.011 33.8852 173.969C33.9862 173.923 34.0934 173.899 34.207 173.899C34.3205 173.899 34.4299 173.923 34.535 173.969C34.6401 174.011 34.7306 174.072 34.8063 174.152C34.8862 174.227 34.9492 174.318 34.9955 174.423C35.0418 174.524 35.0649 174.633 35.0649 174.751ZM37.8426 173.83V179.274H38.1328C38.2211 179.274 38.2947 179.262 38.3536 179.236C38.4125 179.211 38.4735 179.161 38.5366 179.085L40.4543 176.972C40.5132 176.892 40.5784 176.833 40.6499 176.795C40.7214 176.753 40.8118 176.732 40.9211 176.732H42.044L39.7793 179.211C39.6573 179.367 39.527 179.486 39.3882 179.571C39.4681 179.625 39.5375 179.688 39.5964 179.76C39.6595 179.831 39.7204 179.909 39.7793 179.993L42.1891 183.141H41.0851C40.9842 183.141 40.8959 183.124 40.8202 183.091C40.7487 183.057 40.6835 182.996 40.6246 182.908L38.6438 180.334C38.5807 180.237 38.5176 180.176 38.4546 180.151C38.3915 180.122 38.2968 180.107 38.1707 180.107H37.8426V183.141H36.6125V173.83H37.8426ZM46.9939 179.224C46.9939 178.98 46.9582 178.755 46.8867 178.549C46.8194 178.343 46.7184 178.164 46.5839 178.012C46.4493 177.861 46.2853 177.743 46.0918 177.659C45.8984 177.575 45.6755 177.533 45.4231 177.533C44.9058 177.533 44.4979 177.682 44.1993 177.981C43.9049 178.28 43.7178 178.694 43.6379 179.224H46.9939ZM48.0096 182.226C47.8582 182.403 47.6836 182.557 47.486 182.687C47.2883 182.813 47.078 182.916 46.8551 182.996C46.6322 183.076 46.4009 183.135 46.1612 183.173C45.9257 183.211 45.6923 183.229 45.461 183.229C45.0194 183.229 44.6093 183.156 44.2308 183.009C43.8565 182.857 43.5306 182.639 43.253 182.353C42.9797 182.062 42.7652 181.705 42.6096 181.28C42.4582 180.851 42.3825 180.359 42.3825 179.804C42.3825 179.358 42.4519 178.944 42.5907 178.561C42.7295 178.174 42.9271 177.838 43.1837 177.552C43.4444 177.266 43.7619 177.041 44.1362 176.877C44.5105 176.713 44.9311 176.631 45.3979 176.631C45.789 176.631 46.1486 176.696 46.4766 176.826C46.8089 176.953 47.0948 177.138 47.3346 177.382C47.5743 177.626 47.7614 177.926 47.896 178.284C48.0348 178.641 48.1042 179.049 48.1042 179.508C48.1042 179.697 48.0831 179.825 48.0411 179.892C47.999 179.955 47.9212 179.987 47.8077 179.987H43.6063C43.6189 180.37 43.6736 180.704 43.7703 180.99C43.8671 181.272 43.9995 181.507 44.1678 181.697C44.3402 181.886 44.5442 182.027 44.7797 182.119C45.0152 182.212 45.278 182.258 45.5682 182.258C45.8416 182.258 46.0771 182.226 46.2748 182.163C46.4766 182.1 46.649 182.033 46.792 181.961C46.9392 181.886 47.0612 181.816 47.1579 181.753C47.2589 181.69 47.3472 181.659 47.4229 181.659C47.5238 181.659 47.6016 181.697 47.6563 181.772L48.0096 182.226ZM57.557 175.558C57.5149 175.63 57.4707 175.683 57.4245 175.716C57.3782 175.75 57.3193 175.767 57.2479 175.767C57.1721 175.767 57.0859 175.733 56.9892 175.666C56.8925 175.594 56.7705 175.516 56.6233 175.432C56.4803 175.344 56.3079 175.266 56.106 175.199C55.9042 175.127 55.6623 175.092 55.3806 175.092C55.1156 175.092 54.8822 175.127 54.6803 175.199C54.4827 175.266 54.3166 175.361 54.182 175.483C54.0474 175.601 53.9444 175.741 53.8729 175.905C53.8056 176.065 53.7719 176.24 53.7719 176.429C53.7719 176.673 53.8329 176.875 53.9549 177.035C54.0811 177.194 54.2451 177.331 54.4469 177.445C54.6488 177.558 54.878 177.657 55.1345 177.741C55.3911 177.825 55.6539 177.914 55.9231 178.006C56.1923 178.094 56.4551 178.197 56.7116 178.315C56.9682 178.433 57.1974 178.582 57.3993 178.763C57.6011 178.94 57.763 179.158 57.885 179.419C58.0112 179.676 58.0742 179.991 58.0742 180.365C58.0742 180.765 58.0049 181.139 57.8661 181.488C57.7315 181.837 57.5338 182.142 57.2731 182.403C57.0123 182.664 56.6906 182.87 56.3079 183.021C55.9294 183.168 55.4983 183.242 55.0147 183.242C54.7245 183.242 54.4427 183.213 54.1694 183.154C53.896 183.099 53.6374 183.021 53.3934 182.92C53.1495 182.815 52.9203 182.691 52.7058 182.548C52.4956 182.401 52.3063 182.237 52.1381 182.056L52.5229 181.413C52.5607 181.362 52.6049 181.32 52.6554 181.286C52.71 181.253 52.771 181.236 52.8383 181.236C52.9266 181.236 53.0276 181.282 53.1411 181.375C53.2589 181.467 53.4019 181.57 53.5701 181.684C53.7425 181.793 53.9465 181.894 54.182 181.987C54.4217 182.079 54.7119 182.125 55.0525 182.125C55.3301 182.125 55.5782 182.09 55.7969 182.018C56.0156 181.943 56.1986 181.837 56.3458 181.703C56.4972 181.564 56.6128 181.398 56.6927 181.204C56.7726 181.011 56.8126 180.797 56.8126 180.561C56.8126 180.296 56.7516 180.079 56.6296 179.911C56.5077 179.743 56.3458 179.602 56.1439 179.489C55.942 179.375 55.7128 179.278 55.4563 179.198C55.1997 179.119 54.9369 179.037 54.6677 178.952C54.3986 178.864 54.1357 178.763 53.8792 178.65C53.6226 178.536 53.3934 178.389 53.1916 178.208C52.9897 178.023 52.8278 177.794 52.7058 177.52C52.5839 177.243 52.5229 176.902 52.5229 176.498C52.5229 176.175 52.586 175.861 52.7121 175.558C52.8383 175.256 53.0212 174.989 53.261 174.757C53.5049 174.522 53.8035 174.335 54.1568 174.196C54.51 174.053 54.9138 173.981 55.368 173.981C55.8768 173.981 56.3437 174.063 56.7684 174.227C57.1974 174.387 57.5696 174.619 57.885 174.921L57.557 175.558ZM59.3448 183.141V176.732H60.0829C60.2553 176.732 60.3625 176.814 60.4046 176.978L60.4929 177.59C60.7284 177.308 60.9892 177.079 61.2751 176.902C61.5653 176.721 61.9039 176.631 62.2908 176.631C62.7156 176.631 63.0604 176.749 63.3254 176.984C63.5903 177.215 63.7838 177.531 63.9057 177.93C63.9983 177.703 64.1181 177.508 64.2653 177.344C64.4125 177.18 64.5765 177.045 64.7574 176.94C64.9382 176.835 65.1296 176.757 65.3314 176.707C65.5375 176.656 65.7457 176.631 65.956 176.631C66.2966 176.631 66.5994 176.686 66.8644 176.795C67.1335 176.9 67.3606 177.056 67.5457 177.262C67.7307 177.468 67.8716 177.722 67.9683 178.025C68.065 178.328 68.1134 178.673 68.1134 179.06V183.141H66.877V179.06C66.877 178.58 66.7718 178.219 66.5616 177.975C66.3555 177.731 66.0527 177.609 65.6532 177.609C65.4765 177.609 65.3083 177.64 65.1485 177.703C64.9887 177.762 64.8478 177.853 64.7258 177.975C64.6081 178.097 64.5134 178.248 64.4419 178.429C64.3747 178.61 64.341 178.82 64.341 179.06V183.141H63.1046V179.06C63.1046 178.563 63.0057 178.197 62.8081 177.962C62.6104 177.726 62.3202 177.609 61.9375 177.609C61.6726 177.609 61.4265 177.678 61.1994 177.817C60.9723 177.956 60.7642 178.145 60.5749 178.385V183.141H59.3448ZM71.0553 176.732V183.141H69.8251V176.732H71.0553ZM71.2887 174.751C71.2887 174.865 71.2656 174.974 71.2193 175.079C71.173 175.18 71.1099 175.27 71.03 175.35C70.9543 175.426 70.8639 175.487 70.7588 175.533C70.6536 175.575 70.5443 175.596 70.4307 175.596C70.3172 175.596 70.21 175.575 70.109 175.533C70.0081 175.487 69.9177 175.426 69.8378 175.35C69.7621 175.27 69.7011 175.18 69.6548 175.079C69.6128 174.974 69.5917 174.865 69.5917 174.751C69.5917 174.633 69.6128 174.524 69.6548 174.423C69.7011 174.318 69.7621 174.227 69.8378 174.152C69.9177 174.072 70.0081 174.011 70.109 173.969C70.21 173.923 70.3172 173.899 70.4307 173.899C70.5443 173.899 70.6536 173.923 70.7588 173.969C70.8639 174.011 70.9543 174.072 71.03 174.152C71.1099 174.227 71.173 174.318 71.2193 174.423C71.2656 174.524 71.2887 174.633 71.2887 174.751ZM74.8424 183.242C74.3251 183.242 73.9255 183.097 73.6438 182.807C73.3662 182.517 73.2274 182.102 73.2274 181.564V177.729H72.483C72.4115 177.729 72.3506 177.708 72.3001 177.665C72.2538 177.619 72.2307 177.552 72.2307 177.464V176.965L73.2716 176.82L73.5491 174.909C73.566 174.837 73.5975 174.783 73.6438 174.745C73.6942 174.703 73.7573 174.682 73.833 174.682H74.4576V176.833H76.2744V177.729H74.4576V181.482C74.4576 181.734 74.5185 181.924 74.6405 182.05C74.7667 182.172 74.9265 182.233 75.1199 182.233C75.2335 182.233 75.3302 182.218 75.4101 182.189C75.4942 182.159 75.5657 182.128 75.6246 182.094C75.6835 182.056 75.7339 182.022 75.776 181.993C75.8181 181.964 75.8559 181.949 75.8895 181.949C75.9316 181.949 75.9631 181.959 75.9842 181.98C76.0094 181.997 76.0346 182.027 76.0599 182.069L76.4258 182.662C76.2239 182.847 75.9842 182.99 75.7066 183.091C75.429 183.192 75.141 183.242 74.8424 183.242ZM78.6375 177.546C78.9067 177.272 79.2032 177.051 79.527 176.883C79.855 176.715 80.2314 176.631 80.6562 176.631C81.0095 176.631 81.3186 176.69 81.5835 176.808C81.8527 176.925 82.0777 177.091 82.2585 177.306C82.4394 177.516 82.5761 177.771 82.6686 178.069C82.7611 178.368 82.8074 178.698 82.8074 179.06V183.141H81.5709V179.06C81.5709 178.601 81.4658 178.246 81.2555 177.994C81.0452 177.737 80.7235 177.609 80.2903 177.609C79.9749 177.609 79.6784 177.684 79.4008 177.836C79.1275 177.983 78.873 178.185 78.6375 178.441V183.141H77.4074V173.83H78.6375V177.546Z" fill="white"/>
<path d="M133.512 163.188L133.508 163.809H130.314V158.655H133.508V159.276H131.082V160.909H133.034V161.508H131.082V163.188H133.512ZM137.371 163.809H136.696C136.641 163.809 136.597 163.794 136.563 163.766C136.532 163.734 136.507 163.702 136.488 163.669L135.609 162.28C135.597 162.316 135.585 162.35 135.573 162.384C135.561 162.417 135.545 162.448 135.526 162.477L134.719 163.669C134.695 163.702 134.667 163.734 134.636 163.766C134.605 163.794 134.564 163.809 134.514 163.809H133.89L135.16 161.932L133.94 160.162H134.615C134.67 160.162 134.709 160.171 134.733 160.187C134.759 160.204 134.782 160.229 134.801 160.263L135.666 161.594C135.678 161.558 135.691 161.524 135.706 161.49C135.72 161.454 135.739 161.417 135.763 161.379L136.506 160.277C136.549 160.201 136.606 160.162 136.678 160.162H137.321L136.1 161.899L137.371 163.809ZM138.63 162.911C138.745 163.062 138.868 163.167 139 163.227C139.134 163.287 139.283 163.317 139.448 163.317C139.769 163.317 140.016 163.202 140.191 162.972C140.368 162.74 140.457 162.403 140.457 161.96C140.457 161.728 140.436 161.531 140.396 161.368C140.357 161.203 140.3 161.069 140.223 160.966C140.149 160.861 140.057 160.784 139.947 160.737C139.837 160.686 139.713 160.661 139.574 160.661C139.37 160.661 139.193 160.707 139.043 160.798C138.894 160.888 138.757 161.018 138.63 161.185V162.911ZM138.594 160.708C138.671 160.617 138.752 160.534 138.838 160.46C138.927 160.384 139.021 160.319 139.122 160.266C139.222 160.211 139.329 160.17 139.441 160.141C139.556 160.11 139.678 160.094 139.807 160.094C140.015 160.094 140.203 160.135 140.37 160.216C140.54 160.298 140.685 160.417 140.805 160.575C140.924 160.733 141.016 160.928 141.081 161.16C141.148 161.392 141.182 161.659 141.182 161.96C141.182 162.231 141.144 162.482 141.07 162.714C140.999 162.944 140.894 163.143 140.758 163.313C140.624 163.483 140.459 163.617 140.263 163.715C140.069 163.811 139.85 163.859 139.606 163.859C139.388 163.859 139.202 163.823 139.046 163.751C138.891 163.679 138.752 163.579 138.63 163.45V165.032H137.93V160.162H138.35C138.448 160.162 138.509 160.209 138.533 160.302L138.594 160.708ZM142.7 160.162V163.809H142V160.162H142.7ZM142.832 159.035C142.832 159.1 142.819 159.162 142.793 159.222C142.767 159.279 142.731 159.331 142.685 159.376C142.642 159.419 142.591 159.454 142.531 159.48C142.471 159.504 142.409 159.516 142.344 159.516C142.28 159.516 142.219 159.504 142.161 159.48C142.104 159.454 142.052 159.419 142.007 159.376C141.964 159.331 141.929 159.279 141.903 159.222C141.879 159.162 141.867 159.1 141.867 159.035C141.867 158.968 141.879 158.906 141.903 158.849C141.929 158.789 141.964 158.738 142.007 158.694C142.052 158.649 142.104 158.614 142.161 158.59C142.219 158.564 142.28 158.551 142.344 158.551C142.409 158.551 142.471 158.564 142.531 158.59C142.591 158.614 142.642 158.649 142.685 158.694C142.731 158.738 142.767 158.789 142.793 158.849C142.819 158.906 142.832 158.968 142.832 159.035ZM144.373 160.862C144.491 160.623 144.632 160.435 144.797 160.299C144.962 160.162 145.16 160.094 145.393 160.094C145.471 160.094 145.546 160.104 145.615 160.123C145.687 160.14 145.749 160.166 145.802 160.202L145.755 160.729C145.738 160.794 145.699 160.826 145.637 160.826C145.603 160.826 145.553 160.82 145.486 160.808C145.419 160.794 145.347 160.787 145.27 160.787C145.158 160.787 145.059 160.804 144.973 160.837C144.886 160.868 144.809 160.916 144.739 160.981C144.672 161.043 144.613 161.121 144.56 161.214C144.507 161.305 144.458 161.409 144.413 161.526V163.809H143.713V160.162H144.115C144.191 160.162 144.243 160.177 144.269 160.205C144.298 160.232 144.318 160.28 144.33 160.349L144.373 160.862ZM148.624 161.58C148.624 161.441 148.603 161.313 148.563 161.196C148.524 161.079 148.467 160.977 148.39 160.891C148.314 160.805 148.22 160.738 148.11 160.69C148 160.642 147.874 160.618 147.73 160.618C147.436 160.618 147.204 160.703 147.034 160.873C146.866 161.043 146.76 161.278 146.714 161.58H148.624ZM149.201 163.288C149.115 163.389 149.016 163.476 148.904 163.55C148.791 163.622 148.671 163.681 148.545 163.726C148.418 163.772 148.286 163.805 148.15 163.827C148.016 163.848 147.883 163.859 147.752 163.859C147.5 163.859 147.267 163.817 147.052 163.733C146.839 163.647 146.653 163.523 146.495 163.36C146.34 163.195 146.218 162.992 146.129 162.75C146.043 162.506 146 162.226 146 161.91C146 161.656 146.04 161.421 146.119 161.203C146.198 160.983 146.31 160.792 146.456 160.629C146.604 160.466 146.785 160.338 146.998 160.245C147.211 160.152 147.45 160.105 147.716 160.105C147.938 160.105 148.143 160.142 148.329 160.216C148.518 160.288 148.681 160.393 148.817 160.532C148.954 160.671 149.06 160.842 149.137 161.045C149.216 161.249 149.255 161.481 149.255 161.741C149.255 161.849 149.243 161.922 149.219 161.96C149.195 161.996 149.151 162.014 149.087 162.014H146.696C146.704 162.232 146.735 162.422 146.79 162.585C146.845 162.745 146.92 162.879 147.016 162.987C147.114 163.094 147.23 163.175 147.364 163.227C147.498 163.28 147.647 163.306 147.813 163.306C147.968 163.306 148.102 163.288 148.214 163.252C148.329 163.216 148.427 163.178 148.509 163.138C148.593 163.094 148.662 163.055 148.717 163.019C148.774 162.983 148.825 162.965 148.868 162.965C148.925 162.965 148.969 162.987 149 163.03L149.201 163.288ZM154.174 161.045C154.059 160.894 153.934 160.789 153.8 160.729C153.669 160.67 153.52 160.64 153.355 160.64C153.035 160.64 152.786 160.756 152.609 160.988C152.434 161.217 152.347 161.554 152.347 161.996C152.347 162.228 152.366 162.427 152.404 162.592C152.445 162.755 152.502 162.889 152.577 162.994C152.653 163.097 152.746 163.173 152.857 163.224C152.967 163.271 153.091 163.295 153.23 163.295C153.433 163.295 153.609 163.25 153.757 163.159C153.906 163.068 154.044 162.94 154.174 162.775V161.045ZM154.877 158.511V163.809H154.454C154.355 163.809 154.294 163.762 154.271 163.669L154.21 163.249C154.054 163.433 153.877 163.581 153.678 163.694C153.482 163.804 153.255 163.859 152.997 163.859C152.788 163.859 152.599 163.818 152.429 163.737C152.262 163.655 152.118 163.537 151.999 163.382C151.879 163.224 151.787 163.029 151.722 162.797C151.658 162.564 151.626 162.298 151.626 161.996C151.626 161.726 151.661 161.475 151.733 161.243C151.805 161.01 151.909 160.81 152.045 160.64C152.182 160.47 152.347 160.337 152.541 160.241C152.735 160.143 152.953 160.094 153.197 160.094C153.418 160.094 153.604 160.13 153.757 160.202C153.913 160.274 154.052 160.375 154.174 160.507V158.511H154.877ZM157.813 162.19C157.528 162.2 157.287 162.222 157.088 162.258C156.889 162.292 156.728 162.337 156.604 162.395C156.479 162.452 156.389 162.52 156.334 162.599C156.279 162.676 156.252 162.762 156.252 162.858C156.252 162.948 156.266 163.027 156.295 163.094C156.326 163.159 156.367 163.213 156.417 163.256C156.47 163.297 156.531 163.327 156.6 163.346C156.669 163.365 156.745 163.374 156.826 163.374C156.934 163.374 157.032 163.364 157.12 163.342C157.211 163.321 157.296 163.291 157.375 163.252C157.454 163.212 157.529 163.163 157.601 163.105C157.673 163.048 157.744 162.982 157.813 162.908V162.19ZM155.76 160.672C155.963 160.478 156.184 160.333 156.42 160.238C156.66 160.142 156.922 160.094 157.206 160.094C157.415 160.094 157.599 160.129 157.759 160.198C157.919 160.265 158.055 160.36 158.165 160.482C158.275 160.604 158.357 160.75 158.412 160.92C158.47 161.089 158.498 161.277 158.498 161.483V163.809H158.186C158.117 163.809 158.064 163.798 158.028 163.776C157.992 163.752 157.964 163.709 157.942 163.647L157.867 163.328C157.773 163.414 157.681 163.49 157.59 163.557C157.5 163.622 157.404 163.678 157.303 163.726C157.205 163.772 157.1 163.806 156.988 163.83C156.875 163.854 156.751 163.866 156.614 163.866C156.471 163.866 156.336 163.847 156.209 163.809C156.084 163.768 155.975 163.707 155.882 163.626C155.789 163.544 155.715 163.443 155.66 163.321C155.607 163.199 155.581 163.056 155.581 162.893C155.581 162.75 155.619 162.612 155.696 162.481C155.774 162.347 155.901 162.227 156.076 162.122C156.253 162.017 156.483 161.93 156.765 161.863C157.05 161.796 157.399 161.758 157.813 161.749V161.483C157.813 161.208 157.754 161.002 157.637 160.866C157.52 160.729 157.348 160.661 157.12 160.661C156.967 160.661 156.838 160.68 156.733 160.719C156.63 160.757 156.54 160.8 156.464 160.848C156.389 160.893 156.324 160.935 156.266 160.973C156.211 161.012 156.154 161.031 156.094 161.031C156.046 161.031 156.004 161.018 155.968 160.991C155.935 160.965 155.907 160.934 155.886 160.898L155.76 160.672ZM160.527 163.866C160.233 163.866 160.006 163.784 159.846 163.618C159.688 163.453 159.609 163.218 159.609 162.911V160.729H159.185C159.145 160.729 159.11 160.717 159.081 160.693C159.055 160.667 159.042 160.629 159.042 160.579V160.295L159.634 160.213L159.792 159.125C159.801 159.084 159.819 159.053 159.846 159.032C159.874 159.008 159.91 158.996 159.953 158.996H160.309V160.22H161.342V160.729H160.309V162.865C160.309 163.008 160.343 163.116 160.413 163.188C160.484 163.257 160.575 163.292 160.685 163.292C160.75 163.292 160.805 163.283 160.85 163.267C160.898 163.25 160.939 163.232 160.973 163.213C161.006 163.191 161.035 163.172 161.059 163.155C161.083 163.139 161.104 163.13 161.123 163.13C161.147 163.13 161.165 163.136 161.177 163.148C161.191 163.158 161.206 163.175 161.22 163.199L161.428 163.536C161.313 163.641 161.177 163.722 161.019 163.78C160.861 163.837 160.697 163.866 160.527 163.866ZM164.381 161.58C164.381 161.441 164.361 161.313 164.32 161.196C164.282 161.079 164.224 160.977 164.148 160.891C164.071 160.805 163.978 160.738 163.868 160.69C163.758 160.642 163.631 160.618 163.487 160.618C163.193 160.618 162.961 160.703 162.791 160.873C162.624 161.043 162.517 161.278 162.472 161.58H164.381ZM164.959 163.288C164.873 163.389 164.773 163.476 164.661 163.55C164.549 163.622 164.429 163.681 164.302 163.726C164.175 163.772 164.044 163.805 163.907 163.827C163.773 163.848 163.641 163.859 163.509 163.859C163.258 163.859 163.024 163.817 162.809 163.733C162.596 163.647 162.411 163.523 162.253 163.36C162.097 163.195 161.975 162.992 161.887 162.75C161.801 162.506 161.758 162.226 161.758 161.91C161.758 161.656 161.797 161.421 161.876 161.203C161.955 160.983 162.067 160.792 162.213 160.629C162.362 160.466 162.542 160.338 162.755 160.245C162.968 160.152 163.207 160.105 163.473 160.105C163.696 160.105 163.9 160.142 164.087 160.216C164.276 160.288 164.438 160.393 164.575 160.532C164.711 160.671 164.818 160.842 164.894 161.045C164.973 161.249 165.013 161.481 165.013 161.741C165.013 161.849 165.001 161.922 164.977 161.96C164.953 161.996 164.909 162.014 164.844 162.014H162.454C162.461 162.232 162.492 162.422 162.547 162.585C162.602 162.745 162.678 162.879 162.773 162.987C162.871 163.094 162.987 163.175 163.121 163.227C163.255 163.28 163.405 163.306 163.57 163.306C163.725 163.306 163.859 163.288 163.972 163.252C164.087 163.216 164.185 163.178 164.266 163.138C164.35 163.094 164.419 163.055 164.474 163.019C164.532 162.983 164.582 162.965 164.625 162.965C164.683 162.965 164.727 162.987 164.758 163.03L164.959 163.288Z" fill="white"/>
<path d="M136.631 178.612C136.631 179.402 136.544 180.088 136.372 180.668C136.204 181.249 135.97 181.73 135.672 182.113C135.377 182.491 135.028 182.773 134.625 182.958C134.225 183.143 133.794 183.236 133.331 183.236C132.869 183.236 132.436 183.143 132.032 182.958C131.632 182.773 131.285 182.491 130.991 182.113C130.697 181.73 130.465 181.249 130.297 180.668C130.129 180.088 130.045 179.402 130.045 178.612C130.045 177.821 130.129 177.136 130.297 176.555C130.465 175.971 130.697 175.489 130.991 175.111C131.285 174.728 131.632 174.444 132.032 174.259C132.436 174.074 132.869 173.981 133.331 173.981C133.794 173.981 134.225 174.074 134.625 174.259C135.028 174.444 135.377 174.728 135.672 175.111C135.97 175.489 136.204 175.971 136.372 176.555C136.544 177.136 136.631 177.821 136.631 178.612ZM135.356 178.612C135.356 177.93 135.3 177.361 135.186 176.902C135.077 176.444 134.927 176.076 134.738 175.798C134.553 175.516 134.339 175.317 134.095 175.199C133.851 175.081 133.596 175.022 133.331 175.022C133.066 175.022 132.812 175.081 132.568 175.199C132.324 175.317 132.108 175.516 131.918 175.798C131.733 176.076 131.586 176.444 131.477 176.902C131.367 177.361 131.313 177.93 131.313 178.612C131.313 179.293 131.367 179.863 131.477 180.321C131.586 180.78 131.733 181.148 131.918 181.425C132.108 181.703 132.324 181.9 132.568 182.018C132.812 182.136 133.066 182.195 133.331 182.195C133.596 182.195 133.851 182.136 134.095 182.018C134.339 181.9 134.553 181.703 134.738 181.425C134.927 181.148 135.077 180.78 135.186 180.321C135.3 179.863 135.356 179.293 135.356 178.612ZM140.644 182.214C140.934 182.214 141.197 182.168 141.432 182.075C141.668 181.978 141.87 181.848 142.038 181.684C142.206 181.52 142.336 181.324 142.429 181.097C142.522 180.87 142.568 180.624 142.568 180.359C142.568 180.069 142.522 179.81 142.429 179.583C142.341 179.352 142.215 179.156 142.051 178.997C141.891 178.837 141.697 178.715 141.47 178.631C141.243 178.547 140.991 178.504 140.713 178.504C140.423 178.504 140.162 178.555 139.931 178.656C139.7 178.753 139.502 178.885 139.338 179.053C139.174 179.217 139.048 179.411 138.959 179.634C138.871 179.857 138.827 180.09 138.827 180.334C138.827 180.611 138.867 180.866 138.947 181.097C139.027 181.329 139.144 181.526 139.3 181.69C139.456 181.854 139.645 181.983 139.868 182.075C140.095 182.168 140.354 182.214 140.644 182.214ZM140.063 177.451C139.992 177.544 139.92 177.634 139.849 177.722C139.782 177.806 139.716 177.89 139.653 177.975C139.855 177.844 140.078 177.743 140.322 177.672C140.57 177.6 140.837 177.565 141.123 177.565C141.481 177.565 141.821 177.623 142.145 177.741C142.469 177.859 142.753 178.031 142.997 178.258C143.245 178.486 143.44 178.767 143.583 179.104C143.726 179.44 143.798 179.827 143.798 180.265C143.798 180.681 143.722 181.072 143.571 181.438C143.419 181.8 143.205 182.115 142.927 182.384C142.654 182.649 142.326 182.859 141.943 183.015C141.561 183.166 141.136 183.242 140.669 183.242C140.206 183.242 139.788 183.168 139.414 183.021C139.044 182.874 138.726 182.666 138.461 182.397C138.2 182.123 137.998 181.795 137.855 181.413C137.712 181.026 137.641 180.597 137.641 180.126C137.641 179.722 137.727 179.297 137.9 178.851C138.076 178.401 138.354 177.922 138.732 177.413L140.997 174.379C141.06 174.295 141.148 174.225 141.262 174.171C141.376 174.112 141.506 174.082 141.653 174.082H142.751L140.063 177.451ZM145.912 183.242C145.853 183.402 145.761 183.52 145.635 183.595C145.508 183.675 145.378 183.715 145.244 183.715H144.726L148.486 174.278C148.545 174.135 148.629 174.026 148.738 173.95C148.852 173.87 148.982 173.83 149.129 173.83H149.653L145.912 183.242ZM156.278 181.974C156.412 181.974 156.518 182.014 156.593 182.094C156.669 182.17 156.707 182.271 156.707 182.397V183.141H150.626V182.718C150.626 182.634 150.642 182.546 150.676 182.454C150.71 182.357 150.766 182.271 150.846 182.195L153.71 179.325C153.95 179.085 154.167 178.854 154.36 178.631C154.554 178.408 154.718 178.187 154.852 177.968C154.987 177.745 155.09 177.518 155.161 177.287C155.237 177.056 155.275 176.812 155.275 176.555C155.275 176.303 155.235 176.082 155.155 175.893C155.075 175.699 154.966 175.54 154.827 175.413C154.688 175.287 154.524 175.193 154.335 175.13C154.146 175.066 153.942 175.035 153.723 175.035C153.504 175.035 153.302 175.066 153.117 175.13C152.937 175.193 152.775 175.281 152.632 175.394C152.489 175.508 152.369 175.643 152.272 175.798C152.175 175.954 152.106 176.122 152.064 176.303C152.005 176.463 151.929 176.57 151.837 176.625C151.748 176.679 151.618 176.692 151.446 176.662L150.802 176.549C150.861 176.128 150.977 175.758 151.149 175.439C151.322 175.119 151.538 174.852 151.799 174.637C152.06 174.419 152.358 174.255 152.695 174.145C153.035 174.036 153.401 173.981 153.792 173.981C154.188 173.981 154.551 174.04 154.884 174.158C155.22 174.272 155.51 174.438 155.754 174.656C155.998 174.875 156.19 175.142 156.328 175.458C156.467 175.769 156.536 176.122 156.536 176.517C156.536 176.854 156.486 177.167 156.385 177.457C156.288 177.743 156.154 178.017 155.981 178.277C155.813 178.538 155.615 178.793 155.388 179.041C155.165 179.285 154.928 179.533 154.676 179.785L152.379 182.132C152.556 182.086 152.733 182.048 152.909 182.018C153.09 181.989 153.26 181.974 153.42 181.974H156.278ZM163.824 182.201V183.141H158.928V182.201H160.846V176.265C160.846 176.076 160.852 175.88 160.865 175.678L159.326 176.984C159.267 177.03 159.208 177.06 159.149 177.073C159.09 177.085 159.033 177.087 158.979 177.079C158.928 177.07 158.882 177.054 158.84 177.028C158.802 176.999 158.771 176.969 158.745 176.94L158.361 176.404L161.073 174.063H162.076V182.201H163.824Z" fill="white"/>
<defs>
<linearGradient id="paint0_linear" x1="160.34" y1="0.967804" x2="160.34" y2="207.14" gradientUnits="userSpaceOnUse">
<stop stop-color="#197BBD"/>
<stop offset="1" stop-color="#3391D0"/>
</linearGradient>
<linearGradient id="paint1_linear" x1="160.34" y1="0.967804" x2="160.34" y2="207.14" gradientUnits="userSpaceOnUse">
<stop stop-color="#197BBD"/>
<stop offset="1" stop-color="#3391D0"/>
</linearGradient>
</defs>
</svg>
